<?xml version="1.0" standalone="no"?>
<!DOCTYPE svg PUBLIC "-//W3C//DTD SVG 20010904//EN"
 "http://www.w3.org/TR/2001/REC-SVG-20010904/DTD/svg10.dtd">
<svg version="1.0" xmlns="http://www.w3.org/2000/svg"
 width="960.000000pt" height="960.000000pt" viewBox="0 0 960.000000 960.000000"
 preserveAspectRatio="xMidYMid meet">

<g transform="translate(0.000000,960.000000) scale(0.100000,-0.100000)"
fill="#000000" stroke="none">
<path d="M0 4800 l0 -4800 4800 0 4800 0 0 4800 0 4800 -4800 0 -4800 0 0
-4800z m4945 4386 c25 -11 33 -19 29 -30 -5 -13 2 -16 33 -16 41 0 307 -44
498 -83 96 -19 115 -21 149 -9 70 23 136 -15 136 -78 0 -39 -14 -60 -41 -60
-10 0 -20 -3 -22 -7 -6 -11 22 -206 31 -213 23 -19 83 -30 101 -20 12 6 73 28
138 50 81 27 111 41 98 45 -111 35 -305 116 -305 126 0 11 13 11 25 0 25 -22
296 -117 363 -127 38 -6 42 -4 42 14 0 30 7 27 -240 117 -152 55 -193 75 -155
75 16 0 255 -77 310 -100 68 -28 96 -34 155 -35 57 0 72 -4 119 -34 50 -32 53
-36 48 -67 -6 -33 -4 -35 101 -105 147 -99 281 -200 316 -238 17 -17 35 -31
41 -31 6 0 31 -18 56 -40 24 -22 47 -40 52 -40 4 0 7 -5 7 -11 0 -6 -21 7 -47
27 -27 21 -53 42 -59 46 -8 6 -10 -4 -7 -34 4 -34 0 -49 -17 -70 -41 -53 -123
-29 -212 63 l-27 28 -52 -60 c-28 -33 -54 -58 -56 -55 -3 3 18 31 46 64 28 32
51 68 51 79 0 22 -62 66 -130 93 -19 7 -39 17 -44 22 -6 4 -17 8 -25 8 -9 0
-29 7 -45 15 -15 8 -31 15 -33 15 -7 0 6 -49 24 -90 23 -53 29 -69 59 -149 22
-61 29 -71 38 -58 84 125 146 189 146 153 0 -8 -9 -20 -21 -26 -20 -11 -129
-171 -129 -190 0 -5 9 -24 20 -42 11 -18 20 -37 20 -41 0 -15 -39 13 -45 34
-4 11 -12 18 -18 16 -7 -2 -16 6 -22 17 -5 12 -107 85 -225 163 -272 181 -333
223 -326 230 3 3 36 -17 73 -43 37 -27 86 -61 108 -76 22 -15 59 -41 83 -58
23 -16 45 -30 47 -30 2 0 59 -36 126 -80 67 -44 126 -80 131 -80 11 0 10 33
-1 45 -5 6 -16 30 -24 55 -30 88 -89 235 -100 249 -7 7 -12 19 -12 25 -2 22
-53 134 -66 142 -4 2 -19 -15 -32 -39 -28 -47 -54 -73 -63 -64 -4 3 12 28 35
54 54 64 49 88 -23 103 -48 10 -57 9 -180 -34 -72 -25 -134 -50 -139 -55 -5
-5 -3 -17 4 -29 10 -16 28 -22 73 -27 68 -7 318 -43 355 -51 13 -3 21 -7 18
-10 -4 -4 -160 16 -222 29 -11 3 -62 8 -112 12 l-93 7 -10 -26 c-11 -29 -62
-56 -104 -56 -20 0 -26 -7 -31 -32 -4 -18 -32 -107 -62 -197 l-54 -164 26 -21
c34 -28 48 -88 30 -132 -31 -76 -139 -110 -199 -63 l-26 20 -92 -74 c-90 -72
-408 -347 -496 -429 -34 -32 -41 -44 -36 -61 4 -12 7 -31 6 -42 -1 -18 16 -28
106 -63 111 -44 251 -87 328 -101 42 -8 46 -7 58 18 26 49 94 101 134 101 17
0 20 10 26 93 14 198 38 472 42 476 2 2 6 2 9 -1 4 -4 -8 -206 -30 -491 -7
-82 -9 -79 48 -92 16 -3 48 -24 73 -47 l44 -41 38 26 c20 14 66 50 102 80 l66
54 -1 54 c-1 48 -6 61 -49 119 -46 63 -70 100 -63 100 1 0 21 -24 42 -52 22
-29 52 -66 67 -82 24 -27 27 -28 43 -13 9 10 23 17 31 17 7 0 26 19 40 43 15
23 42 65 60 94 l34 52 -33 24 c-17 14 -57 41 -87 61 -30 20 -100 66 -155 102
-55 36 -107 69 -115 74 -8 5 -12 11 -8 15 5 5 224 -130 263 -162 19 -16 123
-83 137 -88 8 -3 27 16 48 47 19 28 40 56 45 62 6 6 34 42 63 80 29 38 52 66
52 61 0 -4 -26 -41 -57 -83 -32 -41 -74 -99 -94 -128 -34 -48 -36 -54 -20 -68
39 -35 321 -206 340 -206 4 0 13 11 20 24 12 21 8 48 -29 206 -23 100 -40 184
-37 186 3 3 17 -48 32 -113 15 -65 36 -148 47 -184 l20 -65 50 0 c46 1 52 -2
89 -41 31 -34 39 -50 39 -81 0 -38 1 -39 56 -56 31 -10 58 -15 60 -13 3 3 -20
42 -51 87 -31 45 -75 121 -99 168 -72 143 -148 314 -142 319 3 3 11 -7 17 -23
84 -199 228 -463 277 -507 18 -16 23 -17 53 -3 19 8 41 17 50 19 9 3 19 16 22
29 2 13 17 76 31 140 14 65 26 133 26 153 0 19 5 35 10 35 15 0 12 -26 -20
-192 -17 -83 -28 -158 -26 -165 3 -7 14 -13 25 -13 28 0 78 -46 92 -85 l13
-34 30 16 c34 17 166 103 166 109 0 7 -45 81 -68 112 -14 18 -23 35 -20 37 4
4 35 -40 99 -137 7 -12 118 57 139 86 30 42 39 68 33 96 -5 28 -23 43 -23 20
0 -6 -9 -21 -20 -32 -11 -12 -37 -48 -58 -79 -20 -32 -43 -60 -50 -63 -17 -7
-11 2 55 87 28 37 55 78 59 90 4 12 14 28 23 34 14 11 13 15 -9 33 -14 11 -31
20 -37 20 -7 0 -13 5 -13 10 0 11 -34 28 -113 56 -63 22 -53 30 14 10 29 -9
56 -16 61 -16 5 0 -15 34 -43 75 -28 42 -49 78 -46 81 3 3 13 -9 23 -26 11
-17 24 -28 32 -25 7 2 10 0 7 -5 -4 -6 5 -24 19 -40 13 -17 27 -38 30 -48 8
-26 112 -75 134 -63 27 14 85 1 114 -27 90 -84 29 -222 -78 -177 -18 7 -39 23
-45 34 -12 19 -15 17 -41 -30 -16 -27 -33 -49 -38 -49 -5 0 -37 -20 -72 -43
-35 -24 -110 -73 -167 -108 -57 -35 -106 -71 -109 -79 -19 -55 -88 -87 -151
-70 -47 12 -78 47 -92 106 -10 40 -37 64 -72 64 -7 0 -25 7 -41 15 -27 14 -30
14 -51 -9 -67 -73 -197 -17 -212 90 -5 41 -11 46 -212 164 -14 9 -52 32 -84
53 -31 20 -61 37 -65 37 -4 0 -29 -37 -55 -81 -46 -78 -53 -109 -24 -109 20 0
56 -43 67 -80 28 -96 -92 -165 -164 -93 l-25 25 -48 -39 c-26 -21 -50 -40 -53
-43 -3 -3 -28 -23 -56 -44 l-52 -39 -4 -71 c-4 -81 -21 -112 -79 -145 -48 -27
-126 -28 -178 -2 -42 22 -101 84 -101 106 0 30 -22 24 -85 -22 -35 -26 -111
-81 -167 -122 -203 -147 -199 -143 -191 -166 17 -45 7 -87 -25 -117 -42 -37
-95 -38 -132 -3 l-26 25 -199 -171 c-110 -94 -204 -174 -209 -179 -6 -6 -4
-16 6 -27 56 -65 2 -173 -85 -173 -30 0 -67 16 -79 33 -3 6 -71 -52 -150 -129
-78 -77 -173 -168 -210 -203 l-68 -64 39 -42 c21 -22 42 -48 47 -56 13 -21
145 -139 156 -139 5 0 22 15 39 34 68 78 173 97 268 50 29 -15 56 -23 60 -18
3 5 31 29 61 54 83 68 96 78 198 168 52 45 98 79 101 76 7 -7 -19 -30 -217
-197 -138 -116 -142 -120 -127 -141 33 -45 47 -90 43 -137 l-5 -47 71 -45
c216 -135 295 -179 315 -172 21 6 22 40 7 290 -3 41 -1 60 3 45 4 -14 11 -88
15 -165 4 -76 9 -142 12 -146 10 -16 44 6 71 44 15 23 30 44 33 47 3 3 23 30
45 60 41 57 53 72 71 93 5 7 19 27 29 45 17 28 35 42 35 27 0 -3 -22 -34 -48
-68 -26 -34 -78 -103 -115 -154 l-67 -92 38 -11 c139 -37 111 -227 -37 -256
-46 -9 -111 19 -137 59 -27 41 -26 107 1 137 10 11 16 22 14 24 -3 3 -218 134
-324 197 l-31 18 -34 -46 c-44 -60 -89 -90 -146 -99 -71 -10 -127 3 -171 41
l-40 34 -79 -77 c-44 -42 -133 -127 -199 -188 l-118 -112 21 -27 c39 -49 26
-112 -28 -140 -107 -56 -218 67 -137 153 11 12 37 25 57 28 l37 6 -53 161
c-30 88 -52 162 -50 164 3 4 34 -79 56 -152 7 -22 17 -46 23 -52 5 -7 7 -13 4
-13 -3 0 1 -17 10 -37 8 -21 19 -49 24 -61 9 -24 9 -24 61 20 48 40 114 101
295 275 70 67 72 70 57 92 -10 13 -18 54 -21 102 -3 44 -10 79 -16 79 -15 0
-148 62 -143 67 2 2 33 -10 70 -27 78 -35 99 -38 61 -8 -45 35 -196 197 -211
226 -3 5 -82 -46 -102 -66 -19 -18 -95 -62 -107 -62 -10 0 37 37 67 53 13 7
46 30 75 51 l51 39 -37 51 c-59 80 -102 146 -97 146 3 0 35 -40 72 -90 37 -49
71 -90 77 -90 11 0 78 63 277 257 116 114 143 144 133 154 -18 18 -16 80 2
106 25 35 69 52 110 43 20 -5 39 -11 42 -14 6 -5 83 55 129 100 12 11 43 38
70 60 48 39 98 82 186 163 41 37 48 49 48 81 0 36 -2 37 -72 70 -70 32 -125
56 -215 95 -24 11 -43 23 -43 28 0 5 6 7 13 4 6 -3 84 -37 171 -77 l160 -71
24 24 24 25 -16 148 c-9 82 -18 161 -20 177 -1 15 0 27 4 27 4 0 17 -81 30
-180 22 -168 25 -180 45 -180 11 0 31 -7 44 -16 13 -9 26 -13 30 -8 3 5 27 25
54 44 26 19 56 42 66 50 11 8 87 65 170 125 117 85 151 115 151 133 0 16 -6
22 -23 22 -44 0 -370 104 -436 139 -17 9 -22 7 -37 -19 -24 -39 -76 -64 -121
-57 -73 12 -115 60 -115 132 l0 45 -91 69 c-112 84 -184 147 -177 155 3 3 21
-8 40 -25 81 -70 178 -145 211 -163 34 -18 35 -18 71 5 l37 24 1 158 c0 98 4
157 10 157 6 0 10 -58 10 -154 0 -162 1 -166 47 -166 8 0 27 -9 42 -19 l27
-20 60 51 c32 28 97 85 143 127 47 42 94 85 107 96 41 37 142 125 192 168 28
23 50 43 48 44 -1 1 -119 3 -262 3 l-259 1 -12 -28 c-35 -86 -158 -114 -212
-49 -8 10 -18 13 -25 8 -6 -5 -55 -26 -110 -48 -54 -21 -100 -43 -101 -49 -2
-5 -6 -21 -9 -35 -3 -14 -22 -38 -42 -54 -47 -37 -113 -40 -150 -5 l-24 22
-107 -46 c-60 -25 -143 -59 -185 -77 l-78 -32 0 -41 c0 -78 -66 -147 -142
-147 -51 0 -105 51 -114 108 -6 37 -10 42 -33 42 -37 0 -227 -27 -288 -40
l-53 -12 0 -40 c0 -57 -40 -123 -90 -148 -75 -38 -164 -19 -196 41 -15 30 -16
30 -32 13 -25 -27 -190 -237 -234 -297 l-37 -50 36 -33 c32 -30 35 -38 30 -73
-9 -68 -45 -102 -111 -105 -16 -1 -36 -30 -92 -140 -39 -76 -81 -166 -94 -200
-13 -34 -27 -65 -32 -70 -14 -17 -9 -46 10 -53 25 -10 50 -43 58 -77 6 -27 8
-28 48 -22 22 4 76 14 118 23 65 14 77 20 82 40 4 12 11 23 17 23 7 0 9 -10 5
-24 -5 -22 -4 -23 32 -16 67 13 162 42 162 51 0 4 -13 22 -29 40 -44 48 -51
115 -18 181 30 60 34 53 -96 165 -48 41 -86 78 -83 80 3 3 45 -29 93 -72 130
-115 123 -112 175 -78 37 24 53 28 115 28 l71 0 -3 300 c-2 232 -1 266 5 150
4 -82 8 -221 9 -307 l1 -158 35 -32 c29 -27 37 -42 42 -85 3 -31 1 -71 -7 -97
-15 -55 -72 -124 -117 -142 -43 -19 -107 -18 -144 2 -20 10 -34 12 -42 6 -7
-6 -30 -15 -52 -21 -58 -17 -345 -72 -378 -73 -22 -1 -31 -8 -42 -34 -21 -51
-49 -75 -92 -81 -28 -4 -42 -1 -52 11 -7 9 -17 16 -22 16 -5 0 -67 -52 -139
-115 -71 -64 -130 -112 -130 -107 0 5 33 38 73 73 39 35 97 87 128 116 l55 53
-4 60 -4 60 46 45 c48 47 47 45 17 103 -19 38 -32 74 -23 68 4 -2 19 -27 32
-55 22 -48 40 -65 40 -39 0 6 10 32 21 57 80 169 135 281 156 314 l24 38 -23
29 c-13 16 -25 29 -28 29 -18 2 -316 -129 -324 -142 -9 -13 -4 -30 18 -75 17
-31 37 -68 46 -82 17 -26 32 -60 26 -60 -6 0 -71 113 -85 148 -14 33 -21 38
-36 23 -6 -4 -24 -13 -41 -19 -27 -9 -35 -7 -59 15 l-27 26 -59 -59 c-32 -32
-59 -52 -58 -44 0 8 25 35 54 60 47 39 53 50 54 83 1 29 9 46 30 68 16 16 37
29 45 29 11 0 16 9 16 29 0 32 -47 278 -56 292 -3 5 -1 9 5 9 5 0 12 -8 15
-17 13 -49 35 -153 41 -197 4 -27 10 -45 15 -40 5 5 32 63 60 129 29 66 56
125 60 130 4 6 22 46 40 90 18 44 37 86 43 93 23 28 -3 20 -49 -16 -62 -49
-185 -122 -206 -122 -9 0 -23 -11 -32 -25 -18 -28 -70 -58 -81 -47 -3 4 -11 8
-16 8 -5 1 -13 2 -17 3 -5 0 -14 12 -20 26 -37 80 25 185 108 185 21 0 42 6
47 13 6 6 36 81 68 165 53 140 69 171 81 160 2 -3 -9 -38 -25 -79 -113 -285
-112 -279 -100 -301 11 -20 9 -45 -7 -82 -7 -18 -5 -18 32 4 21 12 82 55 134
93 52 39 96 72 98 73 2 1 -6 17 -17 35 -47 77 -10 206 74 255 23 13 49 24 58
24 10 0 17 4 17 9 0 20 41 307 46 324 3 9 3 17 0 17 -3 0 -50 -44 -104 -97
l-100 -98 -4 -59 c-4 -47 -10 -62 -29 -77 -49 -37 -109 -27 -124 21 -10 31 13
87 45 110 27 19 220 270 220 287 1 17 72 120 116 165 34 36 53 48 75 48 16 0
29 -4 29 -10 0 -26 34 -2 117 83 50 50 115 115 145 143 57 55 165 134 181 134
6 0 33 21 61 48 39 36 51 54 52 79 0 18 6 39 13 47 17 20 126 76 148 76 22 -1
53 -23 53 -39 0 -8 8 -10 21 -6 45 15 245 121 266 141 25 26 126 58 161 51 13
-3 84 8 156 24 438 97 595 121 722 112 64 -5 74 -4 80 12 16 41 123 58 189 31z
m958 -290 c43 -16 76 -30 74 -32 -6 -6 -167 51 -167 59 0 5 4 7 8 5 4 -1 42
-16 85 -32z m38 -473 c40 -49 139 -155 220 -236 l147 -148 27 25 c55 51 131
43 172 -17 35 -52 34 -112 -3 -152 -23 -24 -31 -27 -74 -23 -67 7 -118 42
-126 88 -4 19 -9 40 -13 45 -3 6 -6 13 -6 16 0 3 -23 31 -51 63 -43 48 -55 56
-70 48 -11 -5 -41 -17 -69 -25 -51 -15 -346 -118 -377 -132 -10 -4 -18 -3 -18
2 0 5 37 22 83 37 45 16 96 34 112 41 17 7 80 29 140 49 61 20 116 39 123 41
8 3 -25 43 -82 100 -52 52 -116 123 -142 157 -27 35 -54 69 -61 76 -12 13 -18
32 -9 32 2 0 37 -39 77 -87z m1126 -298 c63 -64 112 -119 109 -123 -4 -3 -18
7 -32 23 -49 58 -133 140 -173 170 -22 17 -41 33 -41 38 0 22 33 -4 137 -108z
m-27 90 c19 -14 56 -46 81 -70 40 -38 48 -43 59 -30 13 16 67 20 86 7 18 -12
61 -76 69 -101 9 -30 -12 -71 -37 -71 -21 0 -22 -12 -4 -62 8 -21 10 -38 6
-38 -9 0 -34 65 -35 87 0 6 -21 30 -46 52 -32 28 -49 51 -53 75 -6 33 -37 67
-131 144 -47 38 -43 43 5 7z m-398 -86 c-57 -56 -106 -99 -109 -96 -7 7 188
196 202 196 6 0 -36 -45 -93 -100z m204 34 c12 -36 65 -179 74 -198 4 -11 19
-48 32 -83 17 -47 27 -61 38 -56 46 20 70 16 105 -19 29 -29 34 -39 27 -59
-12 -30 -69 -51 -97 -34 -11 6 -27 11 -35 11 -8 0 -19 9 -24 21 -6 14 -32 29
-77 44 -81 28 -84 39 -6 16 30 -9 60 -16 66 -16 31 0 1 22 -99 70 -60 30 -108
56 -106 58 2 1 49 -17 105 -42 l101 -45 -6 26 c-6 20 -96 255 -121 311 -3 6 0
12 6 12 7 0 14 -8 17 -17z m-746 -133 c23 -5 8 -6 -40 -3 -41 3 -81 9 -89 13
-16 9 79 1 129 -10z m170 -18 c0 -4 -18 -6 -40 -4 -22 2 -40 6 -40 8 0 2 18 4
40 4 22 0 40 -3 40 -8z m405 -62 c69 -34 39 -30 -38 5 -29 13 -45 24 -37 24 8
0 42 -13 75 -29z m545 -24 c0 -12 -5 -7 -19 24 -11 24 -11 24 3 6 9 -11 16
-24 16 -30z m177 -68 c66 -84 76 -105 20 -43 -44 48 -83 105 -73 105 2 0 26
-28 53 -62z m-149 27 c-3 -3 -9 2 -12 12 -6 14 -5 15 5 6 7 -7 10 -15 7 -18z
m-538 -36 c18 -11 -34 -1 -65 13 -13 5 -9 6 15 2 19 -4 42 -10 50 -15z m85
-19 c13 -5 14 -9 5 -9 -8 0 -24 4 -35 9 -13 5 -14 9 -5 9 8 0 24 -4 35 -9z
m-1140 -66 c20 -31 34 -58 32 -60 -2 -3 -20 23 -40 56 -45 76 -40 79 8 4z
m1865 -77 c0 -13 -34 25 -51 58 -6 11 4 5 20 -13 17 -18 31 -38 31 -45z m-429
-50 c14 -17 38 -50 53 -72 27 -38 27 -39 2 -10 -64 72 -97 115 -89 115 4 0 19
-15 34 -33z m-1357 -3 c3 -8 2 -12 -4 -9 -6 3 -10 10 -10 16 0 14 7 11 14 -7z
m-3454 -49 c7 -9 8 -15 2 -15 -5 0 -12 7 -16 15 -3 8 -4 15 -2 15 2 0 9 -7 16
-15z m1970 -40 c0 -7 -38 -426 -45 -497 l-6 -58 35 0 c45 0 92 -39 100 -83 14
-76 -48 -145 -121 -134 -38 7 -83 41 -83 65 0 8 -42 -23 -92 -69 -51 -47 -126
-113 -165 -148 -40 -35 -73 -68 -73 -73 0 -6 7 -16 15 -22 9 -6 18 -28 22 -49
16 -103 -131 -121 -161 -20 -9 27 16 78 45 93 18 10 19 13 6 23 -19 15 -70 97
-64 103 3 3 16 -14 30 -38 14 -24 34 -51 45 -61 18 -16 23 -17 45 -5 23 13 97
75 199 168 l49 45 -166 -3 c-91 -2 -165 0 -165 5 0 4 77 9 170 10 l171 2 36
32 c30 26 38 40 39 73 2 32 -2 45 -21 61 -12 11 -60 52 -106 90 -100 84 -243
215 -247 227 -7 16 15 8 34 -13 10 -12 97 -89 192 -170 166 -143 173 -148 191
-132 16 15 23 60 45 269 14 138 26 265 26 283 0 17 5 31 10 31 6 0 10 -2 10
-5z m-2087 -25 c-3 -12 -8 -19 -11 -16 -5 6 5 36 12 36 2 0 2 -9 -1 -20z
m4422 0 c3 -5 1 -10 -4 -10 -6 0 -11 5 -11 10 0 6 2 10 4 10 3 0 8 -4 11 -10z
m-462 -107 c-7 -2 -21 -2 -30 0 -10 3 -4 5 12 5 17 0 24 -2 18 -5z m1446 -43
c0 -9 -4 -8 -9 5 -5 11 -9 27 -9 35 0 9 4 8 9 -5 5 -11 9 -27 9 -35z m151
-133 c0 -4 10 -29 22 -55 15 -33 23 -42 26 -29 2 10 -11 47 -28 83 -40 83 -70
154 -69 162 0 4 26 -48 59 -115 47 -98 63 -123 79 -123 47 0 94 -133 59 -168
-42 -42 -118 33 -118 117 0 15 -4 31 -9 37 -10 11 -97 220 -105 254 -4 14 14
-15 38 -65 25 -49 45 -94 46 -98z m-1396 165 c2 -4 -12 -6 -32 -4 -62 6 -69
10 -20 11 26 0 49 -3 52 -7z m89 -9 c-13 -2 -35 -2 -50 0 -16 2 -5 4 22 4 28
0 40 -2 28 -4z m-4209 -35 c-34 -40 -42 -48 -49 -48 -10 0 48 68 59 69 5 1 1
-9 -10 -21z m5386 -43 c0 -5 -5 -3 -10 5 -5 8 -10 20 -10 25 0 6 5 3 10 -5 5
-8 10 -19 10 -25z m27 -7 c-3 -7 -5 -2 -5 12 0 14 2 19 5 13 2 -7 2 -19 0 -25z
m-297 -8 c0 -4 18 -47 40 -94 22 -47 40 -89 40 -93 1 -5 9 -26 20 -48 11 -22
19 -47 20 -55 0 -25 -25 20 -50 90 -12 36 -38 98 -56 139 -37 81 -39 85 -24
76 6 -3 10 -10 10 -15z m-5222 -54 c-29 -30 -55 -52 -57 -50 -6 6 90 104 102
104 4 0 -16 -24 -45 -54z m4362 44 c0 -5 -7 -10 -16 -10 -8 0 -12 5 -9 10 3 6
10 10 16 10 5 0 9 -4 9 -10z m1199 -126 c10 -49 22 -114 24 -144 l6 -55 -10
55 c-6 30 -15 63 -20 73 -5 10 -8 21 -5 25 4 7 -1 31 -29 142 -5 20 -4 21 4 9
6 -9 19 -56 30 -105z m-4053 91 c-3 -8 -17 -77 -31 -153 -39 -209 -37 -194
-18 -190 12 2 26 30 44 88 32 100 38 92 9 -13 l-20 -72 22 -17 c13 -10 26 -18
30 -18 3 0 16 -20 27 -43 20 -41 20 -47 6 -80 -30 -73 -97 -96 -161 -56 l-34
21 -117 -85 c-65 -47 -137 -100 -161 -117 -24 -18 -46 -29 -50 -25 -4 3 0 10
8 15 34 20 118 80 208 149 54 41 99 76 101 78 2 2 -1 14 -9 27 -14 28 -7 72
17 99 9 9 14 19 12 21 -2 3 -82 84 -178 180 -96 97 -172 179 -169 182 3 3 87
-76 186 -175 130 -131 182 -177 189 -168 5 6 15 46 21 87 22 135 55 280 65
280 5 0 7 -7 3 -15z m2824 12 c0 -2 -14 -16 -32 -33 l-31 -29 22 33 c18 26 41
42 41 29z m-2772 -97 c-12 -45 -22 -79 -24 -77 -6 6 30 157 37 157 4 0 -2 -36
-13 -80z m2795 -16 c-25 -49 -69 -127 -96 -174 -27 -47 -57 -99 -67 -116 -17
-29 -17 -33 -2 -48 24 -24 21 -105 -4 -138 -21 -30 -74 -58 -106 -58 -66 0
-130 57 -133 117 -1 31 -6 37 -40 53 -52 23 -272 115 -309 130 -16 6 -26 13
-23 17 4 3 51 -13 104 -37 54 -23 107 -46 118 -50 11 -4 36 -14 55 -22 108
-45 98 -45 138 -5 l36 37 -37 112 c-37 110 -46 163 -13 71 10 -27 29 -78 44
-115 l25 -68 41 0 c23 0 51 -3 64 -6 13 -4 22 -2 22 4 0 6 13 30 29 54 15 24
42 68 58 98 16 30 49 91 73 135 46 85 61 108 66 102 2 -2 -17 -44 -43 -93z
m-83 42 c0 -3 -4 -8 -10 -11 -5 -3 -10 -1 -10 4 0 6 5 11 10 11 6 0 10 -2 10
-4z m-1755 -16 c-3 -5 -32 -34 -62 -62 -31 -29 -86 -81 -122 -115 -36 -34 -72
-63 -79 -63 -12 0 14 27 198 198 51 47 80 66 65 42z m2577 -53 c21 -12 38 -26
38 -30 0 -5 -15 1 -32 12 -18 12 -50 32 -70 44 -21 12 -38 26 -38 30 0 5 15
-1 33 -12 17 -12 49 -32 69 -44z m-4237 -123 c-27 -129 -112 -440 -126 -464
-16 -27 -10 10 11 80 33 106 87 319 105 410 18 97 25 120 32 104 2 -6 -8 -65
-22 -130z m3672 104 c-3 -8 -6 -5 -6 6 -1 11 2 17 5 13 3 -3 4 -12 1 -19z
m503 -42 c0 -12 -5 -7 -19 24 -11 24 -11 24 3 6 9 -11 16 -24 16 -30z m199
-26 c44 -27 86 -50 92 -50 6 0 17 -7 26 -16 9 -8 22 -13 29 -10 8 3 13 1 11
-5 -1 -5 10 -17 25 -26 25 -16 28 -16 47 1 12 11 37 19 62 20 34 1 46 -5 70
-32 16 -17 31 -32 33 -32 3 0 19 21 36 46 40 57 51 51 14 -7 -45 -72 -51 -75
-79 -45 -13 14 -32 26 -41 26 -16 0 -15 -3 3 -22 11 -13 24 -33 28 -45 3 -13
11 -23 16 -23 15 0 10 -79 -7 -105 -9 -14 -26 -25 -37 -25 -61 0 -145 115
-134 182 5 29 2 35 -29 56 -20 12 -40 20 -45 16 -5 -3 -9 -1 -9 4 0 5 -43 35
-95 67 -84 51 -117 75 -101 75 2 0 41 -22 85 -50z m-419 20 c0 -11 -4 -20 -9
-20 -5 0 -7 9 -4 20 3 11 7 20 9 20 2 0 4 -9 4 -20z m-21 -84 c-6 -26 -13 -45
-16 -43 -2 3 1 26 8 51 6 26 13 45 16 43 2 -3 -1 -26 -8 -51z m291 0 c0 -12
-5 -7 -19 24 -11 24 -11 24 3 6 9 -11 16 -24 16 -30z m-5325 -68 c-30 -97 -62
-221 -83 -331 -8 -42 -7 -49 9 -58 25 -13 49 -61 49 -96 0 -41 -34 -124 -60
-145 -28 -22 -32 -22 -60 0 -50 41 -45 193 9 231 23 16 29 32 40 97 13 77 82
337 101 382 5 12 14 22 19 22 5 0 -6 -46 -24 -102z m54 28 c-6 -36 -13 -66
-16 -66 -6 0 6 106 14 127 12 31 13 1 2 -61z m5931 -13 c0 -43 -5 -41 -13 5
-4 18 -2 32 3 32 6 0 10 -16 10 -37z m-620 -17 c0 -5 -7 -1 -15 10 -8 10 -14
24 -14 29 0 6 6 1 14 -9 8 -11 15 -24 15 -30z m249 -124 c8 -74 14 -96 31
-110 11 -9 23 -34 27 -55 5 -33 2 -42 -20 -63 -31 -28 -49 -30 -68 -7 -13 15
-11 16 10 10 31 -8 61 8 61 33 0 24 -16 35 -27 17 -4 -8 -18 -16 -30 -19 -19
-5 -21 -2 -18 23 2 16 6 33 9 38 3 5 -3 7 -14 4 -11 -3 -20 -11 -20 -18 0 -7
-13 -15 -29 -18 -31 -6 -92 -35 -176 -82 -27 -16 -47 -25 -44 -22 13 15 127
84 169 102 25 10 55 29 66 42 12 13 32 23 44 23 23 0 23 1 16 95 -3 52 -9 109
-11 127 l-5 33 9 -30 c6 -16 14 -72 20 -123z m-639 -39 c-24 -93 -47 -172 -53
-178 -6 -7 -8 -3 -4 10 3 11 25 93 49 182 23 89 45 160 47 157 2 -2 -15 -79
-39 -171z m1017 100 c-3 -10 -5 -4 -5 12 0 17 2 24 5 18 2 -7 2 -21 0 -30z
m-5950 -25 c-3 -8 -6 -5 -6 6 -1 11 2 17 5 13 3 -3 4 -12 1 -19z m3673 -208
c12 -118 27 -221 32 -227 6 -7 19 -13 30 -13 25 0 57 -17 90 -48 l27 -25 108
109 c60 60 134 138 166 173 31 36 57 59 57 53 0 -13 -146 -171 -256 -279 -44
-42 -72 -77 -69 -85 6 -13 239 -108 370 -149 67 -21 69 -21 80 -4 72 129 206
119 246 -16 40 -139 -133 -253 -218 -143 -15 20 -28 52 -30 78 -4 29 -11 46
-22 49 -9 3 -52 19 -96 35 -116 44 -287 109 -307 117 -15 6 -18 2 -18 -23 0
-56 -66 -112 -132 -112 -42 0 -96 33 -108 66 -16 42 -12 106 11 143 11 18 19
34 17 36 -2 1 -91 32 -198 68 -108 35 -221 75 -250 87 -114 48 -200 91 -200
100 0 6 31 -5 68 -24 90 -45 472 -185 559 -204 34 -8 43 -7 47 5 4 8 -1 83
-10 166 -27 260 -30 297 -23 289 4 -4 17 -104 29 -222z m1714 184 c3 -8 2 -12
-4 -9 -6 3 -10 10 -10 16 0 14 7 11 14 -7z m-5397 -46 c-3 -8 -6 -5 -6 6 -1
11 2 17 5 13 3 -3 4 -12 1 -19z m5480 -104 c-6 -7 -24 18 -52 70 -37 70 -30
69 16 -3 22 -35 38 -65 36 -67z m-3150 44 c-2 -13 -4 -5 -4 17 -1 22 1 32 4
23 2 -10 2 -28 0 -40z m3669 -113 c-4 -12 -26 114 -25 141 1 10 7 -15 15 -56
8 -41 12 -79 10 -85z m-6015 40 c-7 -47 -16 -85 -20 -85 -4 0 0 41 8 90 8 50
16 88 19 85 3 -3 0 -43 -7 -90z m4873 40 c3 -8 1 -15 -4 -15 -6 0 -10 7 -10
15 0 8 2 15 4 15 2 0 6 -7 10 -15z m-4224 -37 c-35 -77 -69 -143 -70 -134 0
11 60 146 73 164 17 22 16 12 -3 -30z m294 27 c11 -8 16 -15 10 -15 -5 0 -18
7 -28 15 -11 8 -16 15 -10 15 5 0 18 -7 28 -15z m723 -7 c-3 -8 -6 -5 -6 6 -1
11 2 17 5 13 3 -3 4 -12 1 -19z m670 -55 c-2 -16 -4 -3 -4 27 0 30 2 43 4 28
2 -16 2 -40 0 -55z m2228 -23 c123 -75 219 -130 229 -130 2 0 14 17 26 38 12
20 28 41 36 45 8 4 14 17 14 27 0 10 5 22 10 25 6 3 10 -1 10 -11 0 -12 5 -15
23 -9 58 18 109 26 134 22 22 -3 19 -4 -12 -6 l-39 -1 37 -38 c50 -51 70 -115
57 -184 -6 -28 -18 -60 -28 -71 -47 -53 -127 -62 -186 -22 l-37 25 -110 -113
c-61 -61 -107 -105 -103 -97 4 8 38 47 74 85 117 122 134 144 121 159 -6 7
-14 34 -17 59 -4 28 -13 48 -22 52 -9 3 -75 42 -147 87 -202 126 -221 138
-210 138 6 0 69 -36 140 -80z m1268 -28 c18 -13 44 -34 59 -48 15 -13 30 -24
33 -24 3 0 15 -9 27 -20 31 -29 48 -25 48 10 0 17 5 30 10 30 6 0 10 7 10 15
0 8 7 15 16 15 14 0 16 8 11 48 -4 30 -3 40 3 27 5 -11 9 -30 9 -42 1 -12 10
-27 21 -33 38 -21 56 -166 23 -202 -16 -18 -49 -23 -69 -10 -6 4 -18 20 -26
35 l-15 29 -16 -24 c-44 -64 -287 -277 -287 -251 0 5 23 26 51 47 28 21 60 45
72 54 38 30 144 136 150 152 4 8 13 23 19 33 10 13 10 19 2 25 -16 10 -75 55
-88 67 -11 10 -102 83 -121 97 -5 4 -23 19 -40 34 -29 24 14 -3 98 -64z m-301
48 c3 -16 3 -30 2 -30 -9 0 -24 42 -19 50 10 16 12 12 17 -20z m-3896 -230
c-13 -118 -22 -218 -19 -222 2 -5 12 -8 22 -8 10 0 33 -14 50 -32 25 -26 31
-40 31 -76 0 -37 -6 -50 -34 -78 -40 -40 -75 -44 -123 -14 -49 29 -65 114 -30
161 7 8 24 23 38 32 24 16 27 27 38 120 14 113 40 334 42 357 1 8 3 6 6 -5 2
-11 -7 -117 -21 -235z m3629 230 c3 -5 1 -10 -4 -10 -6 0 -11 5 -11 10 0 6 2
10 4 10 3 0 8 -4 11 -10z m-78 -6 c-3 -3 -12 -4 -19 -1 -8 3 -5 6 6 6 11 1 17
-2 13 -5z m88 -24 c3 -5 1 -10 -4 -10 -6 0 -11 5 -11 10 0 6 2 10 4 10 3 0 8
-4 11 -10z m-2950 -128 c-11 -85 -17 -53 -8 40 5 53 9 70 11 48 2 -19 1 -59
-3 -88z m2500 100 c-3 -3 -11 0 -18 7 -9 10 -8 11 6 5 10 -3 15 -9 12 -12z
m1200 8 c3 -5 1 -10 -4 -10 -6 0 -11 5 -11 10 0 6 2 10 4 10 3 0 8 -4 11 -10z
m-3119 -162 c-21 -174 -21 -204 2 -213 15 -6 14 -8 -6 -16 -18 -7 -23 -15 -20
-36 3 -24 9 -29 46 -35 100 -17 156 -104 122 -193 -39 -102 -187 -115 -265
-23 -20 23 -25 40 -25 81 1 65 17 94 66 123 22 12 38 26 37 32 -2 7 44 423 48
442 1 3 3 -2 6 -12 2 -9 -3 -76 -11 -150z m455 135 c-12 -20 -14 -14 -5 12 4
9 9 14 11 11 3 -2 0 -13 -6 -23z m-3230 -31 c-6 -15 -24 -74 -40 -132 -16 -58
-32 -112 -35 -120 -6 -15 47 -90 64 -90 8 0 19 70 41 265 6 55 16 107 21 115
6 10 7 3 3 -21 -3 -19 -12 -100 -20 -180 -9 -79 -18 -160 -21 -179 -10 -55
-82 -292 -93 -303 -5 -5 -3 12 5 39 9 27 26 87 39 132 13 46 26 86 29 90 3 3
-13 26 -37 52 -76 83 -143 177 -134 187 3 2 22 -21 42 -51 20 -31 40 -56 44
-56 3 0 17 37 29 83 49 170 66 221 70 209 2 -7 -1 -25 -7 -40z m5139 27 c-25
-17 -76 -42 -68 -34 13 14 62 44 73 44 6 0 3 -4 -5 -10z m-85 -49 c-3 -5 -12
-10 -18 -10 -7 0 -6 4 3 10 19 12 23 12 15 0z m-2965 -135 c0 -3 -52 21 -115
52 -63 32 -115 60 -115 64 0 3 52 -21 115 -53 63 -32 115 -61 115 -63z m1095
106 c-3 -6 -11 -11 -17 -11 -6 0 -6 6 2 15 14 17 26 13 15 -4z m-2779 -38 c-8
-15 -15 -25 -16 -21 0 12 23 58 27 54 3 -2 -2 -17 -11 -33z m3841 5 c-3 -8 -6
-5 -6 6 -1 11 2 17 5 13 3 -3 4 -12 1 -19z m-1123 -43 c-34 -45 -41 -45 -12 0
13 19 27 35 31 35 4 0 -4 -16 -19 -35z m2275 -59 c-6 -42 -14 -75 -16 -72 -3
2 1 39 8 80 6 42 14 75 16 72 3 -2 -1 -39 -8 -80z m-3213 16 c-11 -10 -14 3
-8 33 l7 30 3 -28 c2 -16 1 -31 -2 -35z m2071 11 c-3 -10 -5 -4 -5 12 0 17 2
24 5 18 2 -7 2 -21 0 -30z m-2947 -87 c69 -48 127 -93 129 -99 3 -7 -4 -6 -17
3 -12 8 -73 51 -137 95 -109 74 -148 106 -114 93 8 -3 70 -45 139 -92z m3150
64 c-19 -17 -38 -30 -44 -30 -9 0 64 58 74 59 3 0 -11 -13 -30 -29z m995 -41
c-16 -61 -16 -64 2 -74 43 -24 92 -85 100 -127 25 -125 -45 -226 -147 -214
-38 5 -52 13 -91 56 l-46 50 -51 -53 c-60 -62 -99 -94 -156 -125 -39 -23 -40
-23 -16 -2 14 12 43 36 65 53 22 18 65 57 95 87 l56 55 0 65 c0 64 11 97 43
131 21 23 70 43 97 40 18 -2 24 7 39 64 10 36 20 63 22 61 2 -2 -3 -32 -12
-67z m-3325 51 c8 -5 11 -10 5 -10 -5 0 -17 5 -25 10 -8 5 -10 10 -5 10 6 0
17 -5 25 -10z m-230 -32 c0 -6 -6 -5 -15 2 -8 7 -15 14 -15 16 0 2 7 1 15 -2
8 -4 15 -11 15 -16z m2379 -41 c1 -10 -3 -16 -7 -13 -4 2 -8 22 -9 43 -1 33 0
34 7 13 4 -14 8 -33 9 -43z m-3541 30 c-32 -26 -98 -65 -83 -49 19 20 90 71
100 71 6 0 -2 -10 -17 -22z m4282 8 c11 -13 10 -14 -4 -9 -9 3 -16 10 -16 15
0 13 6 11 20 -6z m-625 -25 c-3 -5 -12 -10 -18 -10 -7 0 -6 4 3 10 19 12 23
12 15 0z m667 -2 c7 -7 39 -33 71 -57 67 -51 76 -65 15 -22 -53 36 -115 90
-106 91 4 0 13 -6 20 -12z m-5252 -10 c0 -7 9 -74 20 -148 11 -74 25 -173 31
-220 11 -84 28 -140 29 -94 0 12 7 24 15 28 9 3 15 0 15 -8 0 -16 63 -80 115
-116 51 -35 218 -120 237 -120 8 0 18 -4 24 -9 12 -12 111 -41 139 -41 13 0
26 10 33 24 16 36 57 59 103 59 l40 0 48 101 c27 55 52 111 56 124 4 13 9 21
12 19 6 -6 -40 -122 -78 -198 l-28 -56 25 -24 c30 -30 46 -115 32 -166 -22
-79 -120 -100 -185 -41 -12 11 -29 18 -37 15 -8 -3 -61 -36 -116 -72 -86 -55
-100 -68 -90 -80 8 -9 8 -15 2 -15 -6 0 -12 5 -14 12 -4 11 -46 -11 -76 -39
-7 -7 -18 -13 -23 -13 -14 0 -11 -22 7 -41 10 -12 17 -38 18 -73 1 -45 -3 -59
-23 -80 -27 -29 -47 -32 -86 -14 -39 17 -51 -2 -23 -37 33 -42 32 -125 -1
-154 -13 -12 -30 -21 -38 -21 -22 0 -51 36 -62 77 -14 50 -14 59 5 99 16 33
15 36 -8 87 -27 57 -73 177 -83 217 -6 24 -5 24 9 6 9 -11 16 -25 16 -30 0
-18 66 -181 85 -209 20 -30 23 -31 47 -13 15 11 16 16 2 55 -10 30 -11 47 -4
61 5 10 10 28 10 39 0 12 5 21 10 21 18 0 10 25 -26 80 l-36 55 47 -52 c29
-33 51 -50 60 -46 8 3 15 1 15 -5 0 -5 10 -12 22 -15 21 -6 40 5 123 70 9 7
103 69 198 131 34 23 37 29 37 71 l0 46 -71 18 c-164 40 -366 148 -450 239
-19 21 -39 23 -39 6 -1 -7 -12 -26 -26 -43 l-26 -30 6 32 c5 32 -6 142 -42
411 -10 72 -14 132 -10 132 4 0 8 -6 8 -12z m2160 -23 c7 -8 9 -15 6 -15 -4 0
-14 7 -22 15 -9 8 -11 15 -6 15 5 0 15 -7 22 -15z m85 -75 c11 -18 -2 -10 -36
21 l-34 31 32 -21 c18 -12 35 -26 38 -31z m-1202 25 c-3 -9 -8 -14 -10 -11 -3
3 -2 9 2 15 9 16 15 13 8 -4z m5024 -32 c-3 -10 -5 -2 -5 17 0 19 2 27 5 18 2
-10 2 -26 0 -35z m-6140 15 c-3 -8 -6 -5 -6 6 -1 11 2 17 5 13 3 -3 4 -12 1
-19z m1347 -158 c37 -96 70 -184 75 -195 27 -65 47 -132 37 -123 -9 8 -186
479 -186 495 0 16 12 -13 74 -177z m2426 163 c0 -15 -333 -130 -458 -159 -37
-8 -75 -17 -84 -20 -10 -3 -18 -2 -18 3 0 4 46 19 103 32 116 27 306 88 387
125 60 27 70 30 70 19z m-2329 -135 c5 -10 7 -18 5 -18 -7 0 -86 134 -86 145
0 8 54 -77 81 -127z m4071 77 c4 -5 5 -11 3 -14 -6 -5 -55 42 -55 53 0 9 38
-20 52 -39z m-4635 13 c-3 -8 -6 -5 -6 6 -1 11 2 17 5 13 3 -3 4 -12 1 -19z
m-567 -44 c0 -3 -7 -1 -15 6 -8 7 -15 17 -15 22 0 5 7 3 15 -6 8 -8 15 -18 15
-22z m2407 20 c-3 -3 -12 -4 -19 -1 -8 3 -5 6 6 6 11 1 17 -2 13 -5z m1053
-13 c-5 -11 -15 -23 -22 -27 -7 -5 -8 -2 -3 7 21 37 44 55 25 20z m2357 -33
c-2 -13 -4 -5 -4 17 -1 22 1 32 4 23 2 -10 2 -28 0 -40z m-3314 25 c-7 -2 -19
-2 -25 0 -7 3 -2 5 12 5 14 0 19 -2 13 -5z m87 -13 c0 -11 -14 -11 -50 0 -22
7 -21 8 13 9 20 1 37 -3 37 -9z m949 -125 c-4 -60 -8 -152 -8 -202 l-1 -92 28
5 c40 8 137 -29 183 -71 37 -33 41 -34 62 -21 50 33 96 -1 81 -60 -9 -34 -24
-30 -24 6 0 25 -4 30 -25 30 -31 0 -31 -3 0 -44 51 -67 56 -188 11 -289 -47
-106 -140 -154 -281 -144 -139 10 -235 69 -269 165 -62 174 8 351 160 408 27
9 50 18 51 19 1 0 7 79 13 175 9 148 14 203 19 229 1 2 3 2 5 0 2 -2 0 -53 -5
-114z m-115 93 c-54 -88 -315 -435 -333 -443 -15 -6 -7 6 37 55 12 14 22 28
22 32 0 3 6 13 13 20 32 33 235 312 244 335 3 7 9 13 15 13 5 0 6 -6 2 -12z
m-3104 -60 c0 -20 -17 -4 -28 25 l-12 32 20 -25 c11 -14 20 -28 20 -32z m406
-5 c-18 -33 -21 -26 -6 13 6 15 13 24 16 21 3 -3 -1 -18 -10 -34z m470 -35
c26 -40 60 -90 77 -111 16 -21 27 -41 23 -44 -3 -4 -7 -4 -9 -2 -1 2 -30 45
-63 94 -63 94 -88 135 -80 135 2 0 26 -33 52 -72z m3269 36 c30 -20 55 -39 55
-41 0 -2 -27 10 -60 28 -33 17 -60 36 -60 40 0 14 7 11 65 -27z m-377 -82
c-34 -51 -63 -90 -65 -88 -2 2 24 46 59 98 35 51 64 91 66 87 1 -3 -25 -47
-60 -97z m-4388 -27 c5 -11 11 -45 13 -75 3 -38 10 -57 22 -65 62 -35 73 -95
30 -159 -31 -46 -31 -68 1 -166 14 -44 24 -88 22 -97 -4 -23 -58 136 -62 184
-2 20 -12 44 -22 52 -47 39 -59 129 -22 168 21 22 21 26 10 112 -7 48 -11 106
-10 127 1 33 2 31 5 -11 2 -27 8 -59 13 -70z m650 55 c11 -22 19 -40 16 -40
-4 0 -46 68 -46 76 0 13 12 -1 30 -36z m4775 10 c3 -5 1 -10 -4 -10 -6 0 -11
5 -11 10 0 6 2 10 4 10 3 0 8 -4 11 -10z m-936 -87 c-50 -75 -161 -224 -186
-251 -7 -7 -29 -34 -50 -60 -52 -64 -63 -75 -70 -69 -3 3 12 23 32 44 21 21
58 65 83 98 52 67 55 71 80 101 10 12 47 65 82 118 36 52 69 96 73 96 4 0 -16
-35 -44 -77z m1367 50 c16 -16 56 -52 89 -80 32 -29 54 -53 49 -53 -11 0 -183
159 -173 160 3 0 19 -12 35 -27z m-4865 -10 c-12 -20 -14 -14 -5 12 4 9 9 14
11 11 3 -2 0 -13 -6 -23z m676 -45 c-14 -29 -39 -83 -56 -120 -44 -96 -48
-118 -23 -118 25 0 81 -63 84 -93 5 -75 -18 -118 -77 -147 -53 -25 -113 -22
-170 10 l-34 19 -78 -68 c-43 -37 -91 -79 -107 -94 l-28 -26 30 -38 c35 -45
70 -78 76 -72 5 4 86 178 86 183 0 13 32 77 36 73 5 -5 -34 -100 -91 -219
l-27 -57 61 -57 c34 -31 78 -69 97 -85 20 -16 33 -29 29 -29 -25 0 -220 181
-284 265 l-23 30 -41 -45 c-22 -25 -64 -71 -94 -102 -60 -65 -67 -93 -26 -109
35 -13 81 -62 89 -95 9 -37 -12 -99 -43 -123 -32 -26 -89 -27 -123 -4 -33 22
-38 30 -55 88 -15 49 -18 51 -93 87 -87 42 -146 81 -67 46 28 -13 52 -25 55
-28 3 -3 25 -14 49 -25 43 -19 44 -19 55 0 11 19 38 47 71 74 9 7 14 20 11 28
-15 39 -19 66 -7 59 6 -4 11 -16 11 -27 0 -28 14 -23 50 19 18 20 60 65 93
100 l59 62 -58 76 c-75 96 -88 114 -81 114 3 0 38 -41 77 -90 l71 -91 105 97
c57 53 104 100 104 104 0 4 -17 10 -37 14 -49 8 -116 26 -111 31 2 2 30 -3 63
-11 33 -7 63 -14 66 -14 4 0 9 23 11 50 8 76 67 130 143 130 19 0 35 4 35 9 0
18 134 293 138 283 2 -6 -8 -35 -21 -64z m4253 57 c7 -8 8 -15 2 -15 -5 0 -15
7 -22 15 -7 8 -8 15 -2 15 5 0 15 -7 22 -15z m-610 -11 c0 -6 -65 -34 -77 -33
-4 0 10 9 32 19 48 22 45 21 45 14z m641 -31 c13 -16 12 -17 -3 -4 -10 7 -18
15 -18 17 0 8 8 3 21 -13z m-514 -105 c-2 -24 -4 -7 -4 37 0 44 2 63 4 43 2
-21 2 -57 0 -80z m-411 66 c56 -36 58 -36 85 -20 23 14 36 15 68 6 45 -12 58
-25 71 -71 18 -63 -37 -129 -109 -129 -21 0 -37 9 -56 32 -24 28 -27 38 -23
86 5 58 4 60 -88 119 -11 6 -16 12 -12 12 4 1 33 -15 64 -35z m184 26 c-8 -5
-19 -10 -25 -10 -5 0 -3 5 5 10 8 5 20 10 25 10 6 0 3 -5 -5 -10z m997 -12
c-3 -8 -6 -5 -6 6 -1 11 2 17 5 13 3 -3 4 -12 1 -19z m-5476 -40 c8 -15 8 -18
0 -14 -6 4 -16 16 -22 28 -8 15 -8 18 0 14 6 -4 16 -16 22 -28z m5356 -5 c-3
-10 -5 -4 -5 12 0 17 2 24 5 18 2 -7 2 -21 0 -30z m149 -71 c13 -85 -30 -162
-89 -162 -41 1 -63 18 -82 63 -32 76 7 152 88 172 15 4 27 12 27 19 1 28 50
-53 56 -92z m-1926 69 c0 -5 -9 -19 -20 -32 l-20 -24 17 32 c19 34 23 39 23
24z m-1061 -104 c85 -114 93 -122 120 -108 47 26 101 9 121 -39 37 -90 -93
-160 -150 -80 -21 30 -27 75 -10 85 8 5 -60 103 -110 157 -20 22 -53 78 -46
78 4 0 37 -42 75 -93z m2678 71 c-3 -8 -6 -5 -6 6 -1 11 2 17 5 13 3 -3 4 -12
1 -19z m108 -16 c-3 -3 -11 0 -18 7 -9 10 -8 11 6 5 10 -3 15 -9 12 -12z
m-5230 -52 c15 -22 26 -43 23 -46 -3 -3 -20 18 -37 46 -37 60 -27 60 14 0z
m2192 -7 c-3 -10 -5 -4 -5 12 0 17 2 24 5 18 2 -7 2 -21 0 -30z m2430 -55 c-2
-18 -4 -6 -4 27 0 33 2 48 4 33 2 -15 2 -42 0 -60z m-3948 7 c0 -5 -6 -1 -14
9 -8 11 -15 27 -15 35 1 17 29 -26 29 -44z m1048 8 c-3 -10 -5 -4 -5 12 0 17
2 24 5 18 2 -7 2 -21 0 -30z m1676 -17 c-10 -13 -20 -22 -22 -20 -4 4 29 44
36 44 2 0 -4 -11 -14 -24z m-2263 -42 c0 -2 -13 2 -30 11 -16 9 -30 18 -30 21
0 2 14 -2 30 -11 17 -9 30 -18 30 -21z m3070 23 c0 -2 -10 -12 -22 -23 l-23
-19 19 23 c18 21 26 27 26 19z m-3315 -27 c-3 -5 -11 -10 -16 -10 -6 0 -7 5
-4 10 3 6 11 10 16 10 6 0 7 -4 4 -10z m4168 -5 c-3 -9 -8 -14 -10 -11 -3 3
-2 9 2 15 9 16 15 13 8 -4z m-700 -145 c5 -115 5 -118 -3 -35 -16 162 -17 188
-10 174 5 -8 10 -70 13 -139z m298 38 c86 9 139 -67 103 -144 -51 -107 -185
-89 -199 26 -5 36 -2 52 16 80 13 19 23 42 24 50 1 8 3 35 5 60 4 42 4 41 7
-15 l4 -60 40 3z m-3466 84 c-3 -3 -11 0 -18 7 -9 10 -8 11 6 5 10 -3 15 -9
12 -12z m4075 4 c0 -3 -4 -8 -10 -11 -5 -3 -10 -1 -10 4 0 6 5 11 10 11 6 0
10 -2 10 -4z m-3063 -38 c-3 -7 -5 -2 -5 12 0 14 2 19 5 13 2 -7 2 -19 0 -25z
m2680 10 c-3 -8 -6 -5 -6 6 -1 11 2 17 5 13 3 -3 4 -12 1 -19z m-1537 2 c0 -5
-2 -10 -4 -10 -3 0 -8 5 -11 10 -3 6 -1 10 4 10 6 0 11 -4 11 -10z m1697 -22
c-3 -8 -6 -5 -6 6 -1 11 2 17 5 13 3 -3 4 -12 1 -19z m-4790 6 c-3 -3 -12 -4
-19 -1 -8 3 -5 6 6 6 11 1 17 -2 13 -5z m-919 -121 c19 -24 29 -43 23 -43 -6
0 -17 12 -25 28 -8 15 -23 36 -35 46 -19 17 -51 70 -51 85 0 3 12 -12 27 -34
14 -22 42 -59 61 -82z m1029 91 c-3 -3 -12 -4 -19 -1 -8 3 -5 6 6 6 11 1 17
-2 13 -5z m4204 -11 c13 -16 12 -17 -3 -4 -10 7 -18 15 -18 17 0 8 8 3 21 -13z
m-4164 1 c-3 -3 -12 -4 -19 -1 -8 3 -5 6 6 6 11 1 17 -2 13 -5z m3582 -37
c-41 -34 -91 -72 -100 -75 -4 -2 -5 -25 -2 -51 11 -97 -62 -158 -137 -115 -66
40 -77 109 -26 160 38 38 73 43 119 19 20 -10 32 -11 40 -4 21 18 122 88 127
88 3 0 -7 -10 -21 -22z m-3784 -8 c11 -17 -1 -21 -15 -4 -8 9 -8 15 -2 15 6 0
14 -5 17 -11z m4976 -26 c-12 -20 -14 -14 -5 12 4 9 9 14 11 11 3 -2 0 -13 -6
-23z m-5791 -38 c0 -5 -5 -3 -10 5 -5 8 -10 20 -10 25 0 6 5 3 10 -5 5 -8 10
-19 10 -25z m5761 -8 c-10 -9 -11 -8 -5 6 3 10 9 15 12 12 3 -3 0 -11 -7 -18z
m-5251 -22 c0 -12 -268 -191 -275 -183 -2 2 26 24 63 48 37 24 96 66 132 92
60 44 80 55 80 43z m-511 -47 c12 -21 20 -38 18 -38 -7 0 -47 65 -47 75 0 10
1 8 29 -37z m691 17 c0 -8 -2 -15 -4 -15 -2 0 -6 7 -10 15 -3 8 -1 15 4 15 6
0 10 -7 10 -15z m4295 -15 c3 -5 1 -10 -4 -10 -6 0 -11 5 -11 10 0 6 2 10 4
10 3 0 8 -4 11 -10z m-5035 -45 c0 -5 -5 -3 -10 5 -5 8 -10 20 -10 25 0 6 5 3
10 -5 5 -8 10 -19 10 -25z m4677 29 c-3 -3 -12 -4 -19 -1 -8 3 -5 6 6 6 11 1
17 -2 13 -5z m-3908 -71 c30 -100 35 -140 7 -54 -29 88 -38 121 -32 121 2 0
14 -30 25 -67z m4966 40 c-9 -16 -30 -44 -46 -63 -20 -22 -15 -12 12 28 44 64
62 83 34 35z m-1115 -24 c36 -32 26 -28 -24 9 -16 12 -25 22 -19 22 5 0 24
-14 43 -31z m-4606 -5 c3 -8 2 -12 -4 -9 -6 3 -10 10 -10 16 0 14 7 11 14 -7z
m5023 -21 c-3 -10 -5 -4 -5 12 0 17 2 24 5 18 2 -7 2 -21 0 -30z m500 -15 c-2
-13 -4 -5 -4 17 -1 22 1 32 4 23 2 -10 2 -28 0 -40z m-5429 7 c-3 -3 -9 2 -12
12 -6 14 -5 15 5 6 7 -7 10 -15 7 -18z m3337 5 c-5 -9 -78 -58 -125 -85 -30
-17 -2 6 61 50 68 48 74 51 64 35z m925 6 c0 -2 -8 -10 -17 -17 -16 -13 -17
-12 -4 4 13 16 21 21 21 13z m-4285 -127 c4 -10 4 -19 1 -19 -6 0 -66 128 -66
139 0 9 58 -97 65 -120z m5166 89 c-19 -50 -101 -218 -106 -218 -2 0 12 35 31
78 20 42 45 96 56 120 20 44 34 59 19 20z m-911 -1 c0 -2 -12 -14 -27 -28
l-28 -24 24 28 c23 25 31 32 31 24z m1214 -49 c4 -17 2 -28 -4 -28 -5 0 -10
14 -10 32 0 36 4 35 14 -4z m376 1 c18 -32 11 -94 -12 -129 -34 -49 -87 -50
-88 -1 0 11 4 11 18 -2 36 -33 56 -16 66 53 6 44 6 44 -8 17 -18 -34 -42 -58
-49 -51 -3 3 -3 12 0 20 3 8 0 14 -6 14 -6 0 -11 -8 -11 -17 0 -11 -3 -14 -10
-7 -13 13 16 95 42 115 25 19 44 15 58 -12z m-2630 -13 c0 -2 -7 -7 -16 -10
-8 -3 -12 -2 -9 4 6 10 25 14 25 6z m2326 -45 c83 -51 29 -203 -67 -189 -34 5
-63 50 -61 98 2 54 17 79 55 95 41 18 37 18 73 -4z m-5261 -9 c-3 -3 -11 0
-18 7 -9 10 -8 11 6 5 10 -3 15 -9 12 -12z m750 -20 c-15 -16 -16 -15 -4 12 7
15 15 23 17 16 3 -7 -3 -19 -13 -28z m2100 28 c-3 -5 -12 -10 -18 -10 -7 0 -6
4 3 10 19 12 23 12 15 0z m-2857 -35 c20 -14 33 -25 28 -25 -10 0 -76 40 -76
46 0 9 12 3 48 -21z m1839 -27 c-2 -13 -4 -5 -4 17 -1 22 1 32 4 23 2 -10 2
-28 0 -40z m-1758 29 c15 -19 2 -29 -15 -12 -8 7 -14 16 -14 19 0 11 17 6 29
-7z m639 -50 c-47 -69 -115 -137 -102 -103 3 9 10 16 14 16 5 0 30 27 56 60
51 66 68 79 32 27z m2559 -29 c-3 -7 -5 -2 -5 12 0 14 2 19 5 13 2 -7 2 -19 0
-25z m-867 12 c-8 -5 -19 -10 -25 -10 -5 0 -3 5 5 10 8 5 20 10 25 10 6 0 3
-5 -5 -10z m-573 -92 c-2 -85 0 -93 18 -96 11 -2 38 -21 60 -42 l40 -38 185
82 c102 45 213 97 248 116 34 18 65 30 68 27 9 -9 -402 -203 -488 -231 -10 -3
-18 -14 -18 -25 0 -38 -31 -97 -59 -114 -40 -24 -92 -21 -132 6 -47 32 -61 62
-55 121 6 56 26 83 70 94 36 9 43 31 45 130 0 34 5 62 10 62 6 0 9 -40 8 -92z
m-1967 61 c0 -6 -4 -7 -10 -4 -5 3 -10 11 -10 16 0 6 5 7 10 4 6 -3 10 -11 10
-16z m2500 16 c0 -6 -56 -35 -67 -35 -4 1 8 9 27 20 39 22 40 22 40 15z m2419
-29 c36 -28 26 -87 -23 -128 -30 -25 -80 -23 -97 3 l-14 21 -65 -30 c-100 -45
-126 -48 -32 -3 76 37 82 42 76 65 -4 18 1 32 23 54 38 40 94 48 132 18z m286
14 c-11 -5 -27 -9 -35 -9 -9 0 -8 4 5 9 11 5 27 9 35 9 9 0 8 -4 -5 -9z
m-1808 -37 c-3 -10 -5 -4 -5 12 0 17 2 24 5 18 2 -7 2 -21 0 -30z m-3372 -13
c17 -33 19 -44 6 -36 -10 6 -33 66 -26 66 3 0 11 -13 20 -30z m85 -5 c0 -5 -5
-3 -10 5 -5 8 -10 20 -10 25 0 6 5 3 10 -5 5 -8 10 -19 10 -25z m1060 5 c3 -3
24 -18 48 -33 23 -15 42 -30 42 -32 0 -7 -111 63 -130 82 -13 14 -12 14 10 2
14 -8 27 -16 30 -19z m1230 6 c0 -3 -33 -22 -72 -44 -40 -22 -107 -58 -148
-80 -41 -23 -79 -41 -85 -41 -5 0 8 9 30 20 32 17 140 78 245 139 17 10 30 12
30 6z m975 -140 c-21 -136 -21 -136 18 -136 88 0 121 -111 53 -179 -22 -22
-35 -26 -82 -26 -51 0 -58 3 -83 34 -43 53 -31 122 28 157 27 16 31 26 50 129
12 62 22 120 22 131 1 15 2 15 6 3 2 -9 -3 -60 -12 -113z m1370 106 c-3 -3
-11 0 -18 7 -9 10 -8 11 6 5 10 -3 15 -9 12 -12z m-4595 -52 c17 -33 28 -60
25 -60 -2 0 -18 27 -35 60 -17 33 -28 60 -25 60 2 0 18 -27 35 -60z m775 20
c50 -5 142 -15 205 -21 63 -6 117 -13 120 -16 12 -13 -456 35 -480 48 -9 6 0
7 25 4 22 -3 81 -9 130 -15z m-824 -96 c72 -139 149 -274 157 -274 4 1 17 9
29 19 l22 19 -64 113 c-36 62 -65 118 -65 123 0 6 25 -34 56 -89 74 -132 88
-150 114 -152 61 -5 110 -77 94 -139 -7 -28 -18 -42 -46 -56 -35 -18 -40 -19
-69 -4 -41 21 -59 20 -61 -1 -3 -39 4 -59 29 -81 29 -25 44 -22 22 4 -12 15
-12 17 1 12 8 -2 17 -13 20 -24 7 -25 29 -29 27 -4 -1 10 -5 16 -9 14 -4 -3
-8 2 -8 10 0 9 -4 16 -10 16 -5 0 -10 5 -10 10 0 22 37 8 53 -20 14 -23 15
-34 7 -50 -18 -34 -62 -26 -110 22 -38 39 -42 46 -37 82 3 21 11 43 19 47 9 6
1 18 -29 46 -89 81 -311 419 -289 440 2 3 13 -15 24 -39 28 -65 145 -241 216
-327 l61 -74 3 32 c2 19 -4 42 -16 59 -24 33 -192 355 -192 367 0 15 9 -1 61
-101z m373 61 c-23 -35 -29 -25 -7 13 10 18 19 27 21 22 2 -5 -4 -20 -14 -35z
m1096 35 c8 -5 11 -10 5 -10 -5 0 -17 5 -25 10 -8 5 -10 10 -5 10 6 0 17 -5
25 -10z m1010 -242 c-22 -124 -42 -232 -45 -241 -4 -9 5 -23 24 -37 17 -12 31
-28 31 -36 0 -20 14 -18 109 16 47 16 86 28 88 26 2 -2 -38 -19 -88 -37 -81
-30 -94 -38 -105 -66 -38 -89 -174 -66 -174 29 0 34 50 88 81 88 10 0 19 3 19
6 0 4 13 70 29 148 15 77 37 188 47 245 10 57 19 100 21 94 2 -5 -14 -111 -37
-235z m1077 200 c-3 -8 -6 -5 -6 6 -1 11 2 17 5 13 3 -3 4 -12 1 -19z m-1927
-18 c0 -5 -7 -7 -15 -4 -8 4 -15 8 -15 10 0 2 7 4 15 4 8 0 15 -4 15 -10z
m-1301 -47 c-49 -82 -73 -128 -85 -162 -8 -20 -13 -28 -14 -17 0 18 78 173
102 204 21 25 19 11 -3 -25z m3303 9 c28 -29 27 -78 -2 -110 -30 -32 -45 -27
-21 7 26 36 27 62 2 83 -17 15 -21 15 -32 2 -9 -12 -9 -13 3 -9 11 4 13 -2 9
-32 -4 -35 -5 -36 -12 -13 l-7 25 -7 -22 c-4 -13 -11 -23 -16 -23 -5 0 -11 0
-14 0 -3 0 -4 3 -2 8 1 4 7 6 12 4 6 -2 6 0 2 5 -5 4 -20 8 -33 8 -20 1 -23
-3 -18 -20 4 -11 7 -20 8 -21 0 -1 10 -7 21 -13 16 -10 16 -11 2 -7 -10 3 -34
-5 -55 -17 -38 -24 -72 -39 -72 -33 0 2 20 16 45 30 41 25 58 46 36 46 -14 0
-22 60 -10 81 24 46 123 59 161 21z m-2941 -70 c48 -72 123 -166 175 -220 19
-19 26 -21 43 -13 72 39 174 -45 157 -130 -11 -58 -53 -93 -118 -98 -30 -2
-44 4 -77 34 -36 33 -41 43 -41 80 0 27 7 51 20 68 l21 26 -104 133 c-102 131
-162 218 -140 205 6 -4 35 -42 64 -85z m1034 78 c8 -13 -5 -13 -25 0 -13 8
-13 10 2 10 9 0 20 -4 23 -10z m2765 0 c-8 -5 -19 -10 -25 -10 -5 0 -3 5 5 10
8 5 20 10 25 10 6 0 3 -5 -5 -10z m-4048 -102 c-89 -145 -105 -169 -110 -164
-2 3 13 34 35 68 22 35 55 87 73 115 18 29 35 51 37 49 3 -2 -13 -33 -35 -68z
m1258 62 c18 -12 2 -12 -25 0 -13 6 -15 9 -5 9 8 0 22 -4 30 -9z m2572 -19
c27 -24 32 -36 36 -87 3 -50 0 -65 -20 -94 -29 -43 -87 -66 -141 -56 -56 10
-91 68 -85 137 4 42 12 57 44 90 34 35 43 39 86 39 38 0 54 -6 80 -29z m-2922
-151 c64 -233 70 -253 96 -281 44 -47 24 -99 -38 -99 -67 0 -94 76 -38 108 16
9 30 22 30 27 0 15 -46 192 -81 309 -32 107 -33 115 -21 101 5 -6 28 -80 52
-165z m-730 95 c0 -5 -5 -3 -10 5 -5 8 -10 20 -10 25 0 6 5 3 10 -5 5 -8 10
-19 10 -25z m2780 10 c-19 -14 -36 -25 -39 -25 -10 1 53 50 63 50 6 0 -5 -11
-24 -25z m-1720 -59 c0 -2 -8 -10 -17 -17 -16 -13 -17 -12 -4 4 13 16 21 21
21 13z m-75 -34 c-3 -3 -11 0 -18 7 -9 10 -8 11 6 5 10 -3 15 -9 12 -12z m40
-12 c-3 -5 -10 -10 -16 -10 -5 0 -9 5 -9 10 0 6 7 10 16 10 8 0 12 -4 9 -10z
m505 -295 c86 -2 114 -15 151 -72 75 -117 -8 -218 -162 -200 -92 11 -149 69
-149 152 0 38 5 50 36 80 l36 36 -66 142 c-36 78 -66 149 -66 157 0 8 35 -54
78 -139 l77 -154 65 -2z m1900 288 c-1 -7 -40 -34 -152 -105 -47 -30 -31 -11
20 23 26 18 62 45 80 61 32 27 52 36 52 21z m-2430 -16 c0 -2 -10 -12 -22 -23
l-23 -19 19 23 c18 21 26 27 26 19z m1443 -54 c4 -3 -39 -21 -95 -39 -115 -37
-141 -39 -46 -3 35 13 77 29 93 35 39 15 40 15 48 7z m2092 -42 c16 -32 11
-83 -10 -101 -9 -7 -11 2 -9 40 3 52 -5 61 -36 39 -12 -8 -11 -9 5 -5 16 5 21
1 21 -14 0 -24 -4 -25 -27 -4 -16 15 -20 13 -48 -18 -35 -38 -36 -43 -17 -80
13 -25 13 -28 0 -28 -8 0 -21 15 -29 33 -12 29 -11 36 8 70 15 26 30 40 49 44
16 3 28 9 28 14 0 4 8 10 18 12 11 3 9 5 -8 6 -25 1 -79 -11 -115 -24 -14 -6
-17 -5 -10 3 16 18 86 41 127 41 32 1 40 -4 53 -28z m-2055 -12 c0 -14 -17
-10 -23 5 -4 10 -1 13 9 9 7 -3 14 -9 14 -14z m-1594 -27 c-17 -16 -18 -16 -5
5 7 12 15 20 18 17 3 -2 -3 -12 -13 -22z m1731 -62 c-6 -38 -13 -70 -16 -70
-4 0 -3 32 2 70 6 39 13 70 16 70 4 0 3 -31 -2 -70z m-462 35 c-50 -21 -83
-26 -40 -6 22 11 47 19 55 19 8 0 2 -5 -15 -13z m2318 -5 c3 -11 1 -17 -4 -14
-11 6 -41 -21 -32 -30 4 -3 1 -6 -5 -6 -22 0 -22 19 0 43 29 31 34 32 41 7z
m-3623 -9 c-5 -11 -15 -23 -22 -27 -7 -5 -8 -2 -3 7 21 37 44 55 25 20z m-155
-81 c7 -12 -2 -12 -30 0 -19 8 -19 9 2 9 12 1 25 -3 28 -9z m2405 -13 c0 -2
-10 -12 -22 -23 l-23 -19 19 23 c18 21 26 27 26 19z m989 -21 c60 -32 61 -119
0 -170 -42 -36 -89 -35 -127 3 -27 27 -29 33 -22 78 4 26 5 52 2 57 -3 5 0 6
5 3 6 -4 17 0 24 9 28 34 75 42 118 20z m-1492 -18 c-3 -8 -6 -5 -6 6 -1 11 2
17 5 13 3 -3 4 -12 1 -19z m-2852 -8 c10 -11 16 -20 13 -20 -3 0 -13 9 -23 20
-10 11 -16 20 -13 20 3 0 13 -9 23 -20z m2842 -57 c-3 -10 -5 -2 -5 17 0 19 2
27 5 18 2 -10 2 -26 0 -35z m307 1 c7 -19 2 -18 -19 6 -16 17 -16 20 -3 15 9
-4 19 -13 22 -21z m86 -82 c0 -10 -64 46 -69 59 -2 7 12 -2 32 -21 21 -19 37
-36 37 -38z m-403 21 c-3 -10 -5 -4 -5 12 0 17 2 24 5 18 2 -7 2 -21 0 -30z
m-636 10 c13 -16 12 -17 -3 -4 -10 7 -18 15 -18 17 0 8 8 3 21 -13z m959 3 c0
-3 -27 -22 -90 -60 -23 -14 -6 2 36 34 36 27 54 36 54 26z m-3110 -71 c13 -14
21 -25 18 -25 -2 0 -15 11 -28 25 -13 14 -21 25 -18 25 2 0 15 -11 28 -25z
m2775 -30 c-4 -25 -9 -44 -12 -41 -2 2 -1 25 2 51 4 25 9 44 12 41 2 -2 1 -25
-2 -51z m217 23 c-6 -7 -25 -22 -44 -32 -39 -23 -32 -13 14 20 38 26 45 29 30
12z m-2098 -53 c16 -14 26 -25 21 -25 -4 0 -20 11 -37 25 -16 14 -26 25 -21
25 4 0 21 -11 37 -25z m1411 -12 c40 -36 25 -28 -28 14 -16 13 -25 23 -20 23
4 -1 26 -17 48 -37z m-686 -11 c-69 -85 -212 -252 -216 -252 -2 0 -1 5 3 11 6
11 166 206 209 256 28 33 31 19 4 -15z m-1544 8 c10 -11 16 -20 13 -20 -3 0
-13 9 -23 20 -10 11 -16 20 -13 20 3 0 13 -9 23 -20z m3965 16 c0 -2 -8 -10
-17 -17 -16 -13 -17 -12 -4 4 13 16 21 21 21 13z m245 -4 c-6 -5 -39 -32 -75
-62 -36 -30 -69 -57 -74 -62 -6 -4 -1 -17 12 -31 12 -13 22 -31 22 -41 0 -21
-62 -86 -81 -86 -11 1 -10 4 1 13 39 30 66 92 36 81 -8 -3 -12 -12 -9 -20 4
-10 0 -12 -11 -8 -9 3 -16 1 -16 -5 0 -6 -12 -16 -26 -21 -19 -8 -25 -16 -21
-30 8 -30 -21 -25 -35 5 -14 31 1 64 40 88 15 8 38 26 52 39 48 45 175 147
185 147 6 1 6 -2 0 -7z m-4060 -11 c3 -5 21 -7 40 -4 41 7 90 -25 124 -81 18
-29 20 -38 10 -60 -17 -37 -36 -32 -90 24 -52 54 -64 61 -54 30 5 -15 3 -18
-8 -14 -18 7 -30 48 -22 74 4 12 -1 22 -12 29 -10 6 -13 11 -6 11 6 0 14 -4
18 -9z m2675 4 c0 -2 -10 -10 -22 -16 -21 -11 -22 -11 -9 4 13 16 31 23 31 12z
m-1936 -40 c11 -8 16 -15 10 -15 -5 0 -18 7 -28 15 -11 8 -16 15 -10 15 5 0
18 -7 28 -15z m1824 -4 c44 -22 80 -80 88 -143 16 -116 -110 -212 -255 -194
l-46 5 -40 -57 c-47 -68 -139 -182 -143 -177 -2 1 29 43 68 91 40 49 78 102
87 118 14 27 13 29 -15 57 -52 51 -75 120 -60 179 6 22 0 30 -48 65 -30 21
-61 46 -67 54 -7 8 17 -7 52 -32 35 -26 67 -47 71 -47 4 0 23 14 41 32 73 67
189 89 267 49z m62 9 c0 -5 -7 -10 -15 -10 -8 0 -15 5 -15 10 0 6 7 10 15 10
8 0 15 -4 15 -10z m-1837 -33 c2 -7 17 -13 32 -15 36 -3 93 -46 106 -79 13
-35 3 -60 -31 -78 -38 -19 -83 -10 -120 25 -37 34 -41 87 -10 115 15 14 17 21
9 32 -7 8 -8 13 -1 13 5 0 12 -6 15 -13z m2697 -4 c40 -28 50 -40 56 -72 13
-65 -43 -127 -142 -157 -61 -18 -88 -18 -129 2 -33 15 -40 24 -55 76 -15 51
57 143 125 161 47 12 121 7 145 -10z m-245 -31 c-3 -3 -16 5 -28 17 l-22 23
28 -17 c15 -10 25 -20 22 -23z m455 24 c0 -2 -17 -16 -37 -31 l-38 -26 35 30
c34 31 40 35 40 27z m-2455 -56 c3 -6 -1 -7 -9 -4 -18 7 -21 14 -7 14 6 0 13
-4 16 -10z m2355 -14 c0 -2 -8 -10 -17 -17 -16 -13 -17 -12 -4 4 13 16 21 21
21 13z m-853 -32 c-3 -3 -12 -4 -19 -1 -8 3 -5 6 6 6 11 1 17 -2 13 -5z m406
-21 c-7 -2 -19 -2 -25 0 -7 3 -2 5 12 5 14 0 19 -2 13 -5z m-2849 -58 c11 -8
16 -15 10 -15 -5 0 -18 7 -28 15 -11 8 -16 15 -10 15 5 0 18 -7 28 -15z m860
-30 c-4 -8 -11 -15 -16 -15 -6 0 -5 6 2 15 7 8 14 15 16 15 2 0 1 -7 -2 -15z
m-751 -54 c52 -41 86 -61 115 -66 45 -7 51 -12 69 -64 12 -36 7 -57 -21 -80
-22 -18 -55 -5 -49 19 3 11 9 17 14 14 5 -3 7 -10 4 -15 -4 -5 1 -9 10 -9 8 0
19 10 24 23 10 27 4 37 -10 17 -8 -11 -9 -9 -5 11 7 33 -21 58 -60 52 -70 -11
-76 -13 -64 -28 6 -8 7 -16 2 -19 -17 -10 -33 21 -26 48 4 17 13 26 25 26 18
0 28 20 12 20 -10 1 -130 109 -121 110 4 0 40 -26 81 -59z m685 35 c23 -10 42
-22 42 -27 0 -5 6 -9 14 -9 8 0 18 -5 22 -12 4 -6 3 -9 -2 -7 -5 3 -27 14 -49
25 -35 17 -106 63 -80 53 6 -3 29 -13 53 -23z m457 14 c3 -6 -1 -7 -9 -4 -18
7 -21 14 -7 14 6 0 13 -4 16 -10z m91 -57 c-5 -5 -76 35 -76 43 0 2 18 -5 41
-16 23 -12 38 -24 35 -27z m-588 -60 c-134 -140 -148 -158 -141 -173 4 -8 6
-31 5 -50 -2 -65 -88 -104 -138 -62 -52 43 -59 108 -16 142 23 19 35 21 87 16
l60 -5 94 99 c52 55 97 98 99 95 3 -2 -20 -30 -50 -62z m723 52 c56 -20 78
-49 79 -100 0 -41 -22 -85 -42 -85 -6 0 -4 8 5 18 19 21 22 58 6 68 -14 8 -31
-16 -24 -35 8 -22 -26 -41 -62 -35 -21 4 -33 2 -33 -5 0 -6 19 -11 43 -12 l42
-1 -45 -9 c-126 -25 -221 81 -140 158 26 24 82 50 116 52 6 1 31 -6 55 -14z
m-336 -125 c3 -5 1 -10 -4 -10 -6 0 -11 5 -11 10 0 6 2 10 4 10 3 0 8 -4 11
-10z m45 -10 c0 -5 -4 -10 -10 -10 -5 0 -10 5 -10 10 0 6 5 10 10 10 6 0 10
-4 10 -10z m1234 -23 c22 -3 51 -18 67 -33 22 -21 26 -31 19 -54 -14 -49 -31
-71 -65 -86 -29 -12 -37 -11 -63 1 -37 19 -48 32 -54 68 -4 21 2 34 25 57 28
27 29 32 19 57 -10 23 -10 25 0 12 7 -9 31 -19 52 -22z m-2214 -43 c0 -11 -41
29 -52 51 -6 12 2 8 21 -12 17 -18 31 -35 31 -39z m10 62 c0 -3 -4 -8 -10 -11
-5 -3 -10 -1 -10 4 0 6 5 11 10 11 6 0 10 -2 10 -4z m-31 -140 c-25 -68 -34
-70 -14 -3 16 52 25 71 31 64 3 -2 -5 -30 -17 -61z m1246 26 c-3 -3 -11 0 -18
7 -9 10 -8 11 6 5 10 -3 15 -9 12 -12z m374 -67 c-29 -30 -57 -55 -61 -55 -5
0 15 25 44 55 29 30 57 55 62 55 5 0 -15 -25 -45 -55z m-1399 -38 c-139 -129
-354 -316 -359 -312 -3 3 11 17 89 85 14 12 108 97 194 175 87 79 107 95 113
95 5 0 -12 -19 -37 -43z m487 27 c-3 -3 -12 -4 -19 -1 -8 3 -5 6 6 6 11 1 17
-2 13 -5z m-775 -108 c-45 -95 -98 -175 -166 -254 -69 -80 -63 -94 15 -36 27
20 49 31 49 25 0 -13 -78 -66 -107 -73 -43 -11 -27 23 59 123 53 63 110 153
153 246 16 34 31 60 33 58 3 -2 -14 -43 -36 -89z m881 87 c-7 -2 -21 -2 -30 0
-10 3 -4 5 12 5 17 0 24 -2 18 -5z m390 -40 c-13 -2 -33 -2 -45 0 -13 2 -3 4
22 4 25 0 35 -2 23 -4z m217 -3 c0 -5 6 -10 13 -10 7 0 23 -7 35 -16 19 -13
20 -18 11 -37 -17 -31 -28 -37 -72 -37 -97 0 -125 79 -35 100 47 11 48 11 48
0z m558 4 c-9 -8 -225 -34 -278 -33 -25 1 11 7 80 15 69 7 134 15 145 17 33 7
59 7 53 1z m-371 -41 c-20 -2 -52 -2 -70 0 -17 2 0 4 38 4 39 0 53 -2 32 -4z
m1639 -499 l29 -5 -3 -140 -4 -140 44 28 c39 25 52 28 130 28 72 0 91 -3 114
-21 72 -54 83 -94 84 -309 0 -211 2 -205 -71 -205 l-59 0 0 194 0 195 -26 20
c-48 38 -123 21 -181 -40 l-31 -34 -4 -170 -3 -170 -65 0 -65 0 -3 375 c-1
206 0 381 3 387 5 14 62 17 111 7z m-1027 -65 c58 -20 62 -23 56 -46 -3 -14
-8 -38 -12 -53 -5 -26 -6 -27 -31 -14 -84 43 -220 43 -276 0 -76 -58 -34 -126
101 -165 43 -12 104 -32 135 -43 183 -65 194 -285 19 -367 -50 -23 -68 -26
-171 -26 -130 0 -193 14 -240 54 -30 24 -32 30 -26 67 11 66 19 71 58 42 99
-76 317 -75 357 0 17 31 13 70 -8 91 -20 20 -37 26 -171 62 -167 45 -220 97
-220 214 0 88 50 158 137 190 61 22 217 19 292 -6z m-3948 -11 c41 -12 51 -36
28 -68 -8 -12 -9 -10 -4 8 4 13 2 22 -4 22 -10 0 -15 -22 -14 -57 1 -7 -3 -13
-7 -13 -5 0 -6 -8 -3 -19 3 -10 0 -22 -6 -25 -6 -4 -11 -3 -11 2 0 5 -26 20
-57 33 -46 19 -76 24 -143 24 -93 0 -129 -13 -178 -65 -52 -53 -76 -117 -76
-200 -1 -103 29 -163 100 -203 78 -43 95 -49 164 -54 58 -5 71 -2 124 26 66
35 66 35 66 19 0 -7 7 -25 14 -40 14 -26 13 -29 -13 -47 -97 -69 -284 -80
-410 -24 -46 21 -119 89 -141 133 -73 143 -35 350 83 456 98 88 187 116 346
109 57 -3 121 -10 142 -17z m3244 -78 l2 -75 69 -5 69 -5 0 -40 c0 -44 4 -42
-87 -44 l-58 -1 0 -158 c0 -195 2 -198 106 -189 l66 5 -6 -46 c-3 -25 -11 -51
-17 -57 -17 -17 -159 -11 -201 9 -67 32 -72 49 -78 251 l-5 180 -32 -3 c-31
-3 -33 -2 -34 32 -1 20 -2 42 -3 49 -1 8 10 11 32 9 l32 -4 0 66 0 65 53 20
c84 33 90 29 92 -59z m3584 -66 c94 -39 149 -122 159 -239 l5 -64 -114 5 c-63
2 -156 6 -206 8 -54 3 -93 0 -93 -5 0 -31 48 -104 83 -127 34 -23 51 -27 111
-27 48 0 82 6 105 18 39 20 51 21 51 6 0 -5 -21 -20 -47 -32 -37 -16 -68 -21
-131 -22 -88 0 -74 -12 16 -14 33 -1 51 -5 47 -11 -10 -16 22 -12 38 5 8 8 17
11 20 8 3 -3 18 -2 32 1 20 5 25 11 20 26 -4 11 -2 20 3 20 5 0 12 -9 15 -20
10 -39 -75 -70 -194 -70 -165 0 -259 72 -294 224 -14 58 -14 78 -4 120 28 116
92 186 189 207 46 10 145 1 189 -17z m-988 -15 c73 -37 133 -139 141 -241 l5
-58 -194 0 c-212 0 -209 1 -178 -59 47 -92 152 -115 241 -55 20 14 37 24 38
22 0 -2 11 -17 24 -35 12 -18 22 -35 22 -37 0 -13 -122 -66 -166 -71 -75 -10
-161 15 -217 64 -136 120 -136 354 0 448 79 55 201 64 284 22z m-1235 -4 c129
-54 184 -205 134 -368 -36 -118 -144 -186 -275 -174 -56 5 -76 13 -146 56 -15
9 -16 -4 -11 -146 l5 -156 -61 5 c-34 2 -63 6 -66 9 -2 2 -6 179 -8 393 l-3
390 55 -1 55 0 -3 -31 c-4 -37 4 -40 33 -12 12 12 44 30 71 41 58 23 157 20
220 -6z m1588 1 c-11 -43 5 -48 47 -14 32 25 51 33 97 36 71 5 84 -7 90 -85
l5 -57 -28 22 c-52 41 -131 25 -172 -37 -22 -32 -23 -43 -23 -207 l0 -173 -62
0 -63 1 0 269 0 269 58 0 c56 0 57 -1 51 -24z m-5686 -19 c60 -28 109 -88 123
-154 25 -111 -40 -277 -134 -340 -111 -75 -257 -62 -355 31 -42 39 -59 71 -73
136 -24 114 47 260 156 318 81 43 202 47 283 9z m646 9 c55 -35 61 -69 58
-314 l-3 -223 -61 3 -62 3 0 190 c-1 168 -3 194 -19 219 -18 26 -23 28 -72 24
-39 -3 -62 -12 -86 -32 -55 -47 -59 -62 -59 -243 l0 -164 -67 3 -68 3 1 155
c1 293 4 346 17 364 9 12 32 19 75 23 l62 6 0 -41 0 -42 43 31 c85 59 183 74
241 35z m626 1 c57 -40 60 -53 60 -299 l0 -228 -55 0 c-30 0 -58 1 -61 3 -3 1
-6 89 -7 195 -2 191 -2 194 -26 213 -34 28 -62 32 -123 19 -90 -19 -87 -11
-93 -230 -3 -107 -7 -195 -8 -196 -1 0 -28 -4 -59 -8 l-58 -6 0 269 0 269 50
7 c57 8 70 3 63 -25 -6 -24 9 -26 42 -4 68 45 224 57 275 21z m546 4 c73 -33
114 -109 114 -212 0 -87 -6 -89 -218 -89 l-174 0 6 -27 c18 -75 81 -117 176
-117 52 0 79 6 121 26 29 15 54 26 55 25 9 -12 9 -99 0 -105 -28 -23 -115 -42
-186 -42 -135 0 -225 44 -273 133 -18 34 -22 58 -22 132 0 76 4 97 25 139 31
60 108 131 157 144 65 17 173 14 219 -7z m607 3 c26 -9 47 -21 47 -27 0 -25
-21 -87 -30 -87 -5 0 -10 -7 -12 -15 -2 -13 -9 -11 -39 9 -48 33 -115 42 -162
23 -94 -40 -134 -160 -84 -257 45 -91 157 -114 268 -56 28 14 53 25 55 24 1
-2 4 -25 5 -53 3 -46 1 -51 -29 -72 -76 -50 -213 -54 -310 -7 -87 42 -131 119
-132 229 0 143 65 246 184 287 64 22 177 23 239 2z"/>
<path d="M4940 9106 c-12 -14 -35 -28 -51 -31 -16 -4 -29 -10 -29 -14 0 -12
40 -62 72 -91 16 -13 28 -29 28 -35 0 -6 30 -21 68 -32 103 -33 127 -35 154
-14 13 10 36 21 53 25 28 7 28 8 10 19 -11 6 -83 35 -160 63 -77 29 -141 57
-143 62 -2 6 6 13 18 17 11 3 18 10 15 15 -3 5 -1 11 5 15 11 7 4 25 -9 25 -4
0 -18 -11 -31 -24z m30 -136 c0 -5 -2 -10 -4 -10 -3 0 -8 5 -11 10 -3 6 -1 10
4 10 6 0 11 -4 11 -10z m123 -35 c32 -8 67 -15 78 -15 11 0 18 -4 15 -9 -6 -9
-160 20 -173 32 -10 11 19 8 80 -8z"/>
<path d="M5005 9110 c-7 -11 4 -14 145 -35 58 -9 179 -31 270 -49 149 -30 191
-34 176 -19 -7 7 -314 68 -441 88 -55 9 -110 18 -122 20 -12 3 -24 1 -28 -5z"/>
<path d="M4551 9097 c-25 -7 -46 -17 -48 -23 -5 -14 102 -43 196 -54 40 -4 78
-14 85 -20 8 -10 7 -11 -9 -6 -11 4 -33 9 -50 12 -18 2 -11 -3 18 -12 57 -18
73 -15 79 19 6 32 -8 57 -31 57 -10 0 -26 9 -36 20 -15 17 -30 20 -89 19 -39
0 -91 -6 -115 -12z"/>
<path d="M4261 9064 c-68 -13 -196 -41 -284 -63 -146 -36 -189 -52 -176 -65 3
-3 61 1 129 9 69 8 149 16 178 19 30 4 59 9 64 12 6 4 42 13 80 20 69 13 147
56 148 82 0 6 -3 11 -7 11 -5 -1 -64 -12 -132 -25z"/>
<path d="M4990 9074 c0 -11 69 -43 205 -96 55 -21 108 -43 117 -48 33 -18 172
-5 271 26 24 7 22 24 -4 24 -11 0 -64 9 -117 20 -336 67 -472 89 -472 74z"/>
<path d="M4424 9024 c-21 -13 -43 -26 -49 -28 -5 -2 1 -15 14 -29 l23 -26 197
0 c221 0 217 17 -14 47 -32 4 -36 6 -20 13 19 7 19 8 -3 8 -13 1 -37 9 -55 18
-45 24 -49 24 -93 -3z"/>
<path d="M4846 9004 c-9 -25 -7 -41 4 -24 8 12 10 11 10 -5 0 -14 10 -25 30
-32 38 -14 37 -7 -4 40 -27 30 -35 34 -40 21z"/>
<path d="M4020 8930 c-63 -4 -141 -13 -174 -19 -32 -6 -62 -8 -68 -5 -15 9
-38 -16 -38 -42 0 -30 29 -104 41 -104 5 0 37 11 71 25 35 13 119 44 188 68
104 36 126 48 128 65 3 16 -2 22 -15 21 -10 -1 -70 -5 -133 -9z"/>
<path d="M5585 8931 c-11 -5 -64 -16 -118 -26 l-97 -19 19 -20 c10 -12 24 -31
30 -43 6 -13 16 -23 21 -23 4 0 60 -30 124 -66 86 -49 121 -64 137 -59 20 7
21 11 13 79 -4 39 -8 90 -9 114 0 35 -3 42 -20 42 -11 1 -31 7 -45 15 -29 16
-28 16 -55 6z"/>
<path d="M4378 8903 c-5 -6 -32 -19 -59 -28 -40 -14 -55 -14 -84 -5 -31 10
-46 8 -118 -16 -113 -37 -310 -113 -321 -124 -5 -5 -1 -29 8 -56 9 -26 16 -58
16 -70 0 -30 18 -35 60 -16 22 9 78 16 152 18 96 3 123 8 152 25 27 16 50 20
93 19 32 -1 61 -2 65 -1 3 0 -5 40 -18 88 -26 95 -28 113 -16 113 5 0 16 -28
26 -62 10 -35 22 -73 27 -86 5 -13 9 -31 9 -42 0 -11 13 -25 31 -34 29 -14 36
-14 102 8 112 37 331 108 342 110 88 22 89 23 65 53 -30 39 -26 53 18 53 20 0
52 -4 70 -9 20 -6 32 -6 32 0 0 5 7 9 16 9 33 0 1 18 -69 39 -66 19 -99 22
-331 24 -191 2 -260 -1 -268 -10z"/>
<path d="M3545 8872 c-98 -39 -163 -79 -215 -133 -25 -25 -65 -61 -90 -80 -61
-46 -165 -132 -223 -187 l-49 -45 21 -21 22 -21 47 26 c26 14 92 49 147 79 55
29 105 57 111 62 12 9 11 100 -1 131 -7 18 9 24 20 7 12 -19 86 -3 135 31 52
35 59 45 38 52 -7 2 -5 3 4 2 20 -3 103 56 116 83 10 17 6 42 -6 42 -4 -1 -38
-13 -77 -28z m-70 -121 c-18 -16 -149 -51 -133 -36 7 7 116 44 133 44 5 1 5
-2 0 -8z"/>
<path d="M3606 8800 c-42 -38 -95 -82 -118 -96 l-41 -26 31 -15 c29 -14 35
-13 124 22 51 20 105 43 119 51 l27 13 -16 48 c-16 49 -29 73 -42 73 -4 0 -41
-31 -84 -70z"/>
<path d="M5050 8830 c-11 -7 -2 -10 29 -10 48 0 51 4 11 13 -14 3 -32 2 -40
-3z"/>
<path d="M5040 8774 c-63 -19 -167 -50 -230 -69 -63 -19 -169 -52 -235 -74
l-120 -39 3 -31 c1 -18 -3 -41 -9 -53 -16 -31 -9 -34 228 -98 l102 -28 17 26
c10 15 27 35 38 45 21 17 20 17 -29 12 -41 -5 -47 -4 -31 6 25 15 163 3 194
-17 12 -8 27 -12 31 -9 10 6 188 226 214 264 15 23 14 25 -15 62 -17 22 -34
39 -37 39 -3 -1 -58 -17 -121 -36z m-220 -83 c0 -4 -66 -48 -147 -97 -82 -48
-149 -92 -151 -96 -5 -12 -52 -10 -52 2 0 6 8 10 19 10 19 0 60 22 171 92 36
22 81 49 100 60 19 11 39 24 45 29 11 11 15 11 15 0z m-200 -211 c0 -12 -8
-12 -35 0 -18 8 -17 9 8 9 15 1 27 -3 27 -9z m77 -6 c-3 -3 -12 -4 -19 -1 -8
3 -5 6 6 6 11 1 17 -2 13 -5z"/>
<path d="M5416 8792 c-13 -12 -4 -21 57 -60 34 -22 88 -58 120 -81 31 -23 59
-41 62 -41 3 0 5 10 5 23 0 17 -14 31 -57 56 -32 19 -86 51 -120 72 -34 20
-64 35 -67 31z"/>
<path d="M3275 8734 c-27 -18 -64 -37 -83 -40 -18 -4 -45 -18 -60 -33 -42 -40
-104 -94 -137 -119 -48 -38 -220 -206 -218 -214 2 -4 -11 -22 -27 -40 -35 -38
-24 -48 23 -21 24 15 32 26 32 46 -1 15 3 27 7 27 4 0 8 5 8 12 0 14 59 68 75
68 19 0 214 155 348 276 21 19 41 34 46 34 4 0 18 9 31 20 36 31 10 22 -45
-16z"/>
<path d="M5318 8746 c-43 -8 -62 -18 -75 -36 -10 -14 -61 -79 -113 -145 -118
-148 -113 -139 -98 -167 7 -13 13 -24 14 -26 4 -10 383 83 522 129 91 30 93
32 87 58 -8 31 -1 25 -100 93 -84 57 -169 109 -176 107 -2 -1 -30 -7 -61 -13z"/>
<path d="M6270 8711 c0 -21 55 -111 68 -111 7 0 28 -11 46 -25 18 -13 52 -32
76 -40 24 -8 49 -20 57 -26 7 -6 19 -9 27 -6 10 4 32 -12 60 -43 24 -28 49
-50 55 -50 28 0 5 26 -89 100 -41 32 -105 88 -143 123 -37 36 -77 67 -90 70
-12 3 -32 9 -44 12 -15 5 -23 3 -23 -4z"/>
<path d="M3628 8664 c-123 -52 -138 -73 -55 -76 28 -1 62 -2 74 -2 11 -1 25
-4 29 -8 11 -11 86 -10 79 1 -3 6 6 8 21 5 23 -4 25 -2 19 18 -18 62 -39 108
-49 108 -6 -1 -59 -21 -118 -46z"/>
<path d="M6406 8701 c-15 -6 10 -31 129 -135 131 -114 149 -127 169 -118 11 6
29 12 39 14 20 3 -52 59 -195 151 -47 31 -95 65 -105 75 -12 13 -25 17 -37 13z"/>
<path d="M3975 8583 c-93 -11 -115 -15 -115 -22 0 -12 263 -6 267 6 6 17 -72
26 -152 16z"/>
<path d="M3495 8553 c-26 -23 -35 -25 -90 -20 -65 6 -69 5 -290 -117 -91 -50
-91 -51 -99 -88 -3 -18 -18 -45 -32 -60 l-27 -27 31 -38 c16 -21 41 -49 55
-62 l26 -23 45 22 c25 12 55 20 67 18 23 -3 22 -4 84 167 49 137 72 189 84
193 8 3 11 0 7 -7 -9 -14 -81 -214 -106 -295 l-19 -58 32 -33 c18 -18 37 -39
43 -47 8 -10 52 -18 144 -26 l133 -13 30 31 c16 16 35 30 42 30 17 0 32 20 41
54 6 25 5 28 -12 23 -10 -3 -50 -15 -89 -27 -238 -72 -294 -85 -273 -64 4 3
57 18 120 34 114 29 179 49 239 74 31 13 34 19 71 152 41 149 43 164 28 164
-12 0 -245 -157 -278 -187 -7 -7 -17 -13 -20 -13 -4 0 -18 -10 -32 -22 -14
-13 -43 -35 -65 -50 -22 -15 -53 -39 -69 -53 -16 -14 -34 -25 -39 -25 -21 0
172 148 397 305 47 33 86 65 86 71 0 6 -46 16 -107 23 -60 7 -113 14 -118 16
-6 1 -24 -9 -40 -22z m-305 -168 c0 -5 -148 -105 -156 -105 -8 0 59 55 101 83
38 26 55 33 55 22z"/>
<path d="M6349 8554 c6 -25 38 -41 142 -74 14 -4 39 -15 57 -24 39 -20 48 -20
32 -1 -14 16 -115 65 -136 65 -8 0 -14 4 -14 8 0 8 -71 52 -83 52 -3 0 -2 -12
2 -26z"/>
<path d="M2924 8529 c-74 -61 -174 -160 -174 -172 0 -6 28 15 62 48 34 33 67
65 73 70 99 85 131 129 39 54z"/>
<path d="M3911 8532 c-19 -2 -44 -10 -55 -18 -11 -8 -29 -14 -39 -14 -10 0
-16 -4 -13 -8 3 -5 -11 -66 -30 -137 -19 -70 -32 -130 -30 -132 3 -3 44 16 92
41 48 26 89 44 92 41 8 -7 7 -8 -98 -63 -83 -45 -96 -55 -107 -88 -24 -69 1
-65 80 13 100 99 150 143 162 143 6 0 4 4 -3 9 -11 6 -6 14 20 32 18 13 47 36
65 52 17 16 34 27 38 25 3 -1 11 5 16 15 6 9 17 17 25 17 9 0 13 5 10 13 -3 6
-9 20 -12 30 -4 9 -16 19 -28 22 -33 6 -147 11 -185 7z"/>
<path d="M5598 8494 c-72 -25 -230 -69 -428 -118 -111 -28 -125 -33 -130 -55
-15 -66 -126 -89 -199 -42 -22 14 -44 37 -49 50 -7 20 -31 30 -179 76 -94 29
-176 56 -183 60 -6 4 -19 0 -28 -8 -45 -39 -141 -49 -209 -22 l-41 16 -43 -40
c-24 -23 -50 -39 -56 -36 -7 2 -12 0 -10 -5 1 -4 -23 -29 -53 -55 -30 -26 -94
-85 -142 -133 -80 -77 -87 -87 -73 -102 8 -9 17 -30 21 -46 5 -29 11 -32 92
-52 153 -38 301 -72 316 -72 19 0 21 19 36 240 6 96 14 186 17 199 4 17 2 22
-6 17 -6 -4 -11 -4 -11 -1 0 9 30 38 35 33 2 -2 -2 -73 -10 -158 -7 -85 -16
-196 -19 -246 l-7 -91 33 -7 c57 -12 241 -36 281 -36 30 0 37 4 37 19 0 11 14
31 31 45 29 24 45 31 94 38 23 4 84 117 85 158 0 20 2 22 11 10 8 -12 9 -10 5
10 -3 14 -1 32 5 40 8 11 9 9 4 -9 -12 -40 10 -15 25 28 7 23 17 41 22 41 12
0 3 -30 -37 -115 -18 -38 -42 -91 -53 -117 l-20 -47 24 -16 c14 -9 29 -26 33
-38 7 -19 16 -22 82 -23 473 -7 479 -7 498 10 10 9 23 16 30 16 8 0 9 5 1 19
-5 11 -10 28 -10 38 0 11 -16 25 -43 37 -70 30 -157 85 -259 164 -54 41 -98
76 -98 78 0 9 45 -20 143 -93 92 -68 224 -143 253 -143 6 0 17 12 24 26 22 40
67 67 116 68 l44 1 31 95 c29 89 70 227 82 278 4 15 -1 25 -13 32 -23 12 -21
13 -102 -16z m-1183 -112 c11 -15 86 -109 167 -209 82 -100 148 -187 148 -192
0 -22 -16 -9 -45 36 -16 26 -70 95 -120 153 -49 58 -102 121 -116 140 -15 19
-39 49 -53 65 -14 17 -26 33 -26 37 0 14 25 -3 45 -30z m-175 -40 c0 -11 -88
-141 -122 -181 -44 -51 -216 -162 -250 -161 -7 1 13 14 45 30 132 67 208 136
278 253 38 64 49 77 49 59z"/>
<path d="M2679 8288 c-61 -57 -86 -103 -52 -96 10 2 18 8 18 14 0 6 21 32 48
58 26 26 47 54 47 62 0 8 -1 14 -3 14 -1 0 -28 -24 -58 -52z"/>
<path d="M2712 8204 c-67 -33 -108 -59 -116 -75 -25 -48 -51 -85 -86 -119 -35
-35 -36 -39 -53 -170 -10 -74 -19 -155 -20 -180 -2 -42 0 -45 28 -50 38 -7 55
13 155 182 245 415 250 423 269 417 6 -2 -7 -28 -33 -63 -24 -33 -84 -128
-133 -213 -48 -84 -116 -196 -150 -249 -53 -82 -60 -99 -50 -115 6 -10 16 -19
22 -19 9 0 90 67 255 210 160 138 234 200 241 200 3 0 6 31 5 68 -1 71 -8 86
-65 152 -17 19 -31 38 -31 42 0 4 -15 5 -32 2 -21 -3 -46 2 -68 13 l-35 18
-103 -51z"/>
<path d="M3275 8004 c-36 -69 -137 -102 -184 -60 -23 21 -7 32 -256 -179 -71
-61 -155 -131 -185 -155 -30 -25 -61 -51 -68 -58 -8 -6 -22 -17 -33 -22 -13
-7 -19 -21 -19 -44 0 -48 -26 -116 -58 -149 -44 -46 -77 -59 -132 -52 -48 7
-49 7 -59 -27 -5 -18 -54 -133 -109 -254 -55 -122 -102 -234 -106 -249 -5 -21
-1 -32 19 -52 14 -14 25 -32 25 -39 0 -8 7 -14 16 -14 18 0 136 46 237 92 62
29 67 33 67 63 0 34 43 85 72 85 9 0 19 4 22 8 9 15 -38 235 -80 371 -5 18 -4
23 6 19 8 -2 18 -18 22 -34 28 -99 58 -227 64 -277 3 -32 10 -57 14 -55 4 2
56 64 115 138 59 74 111 137 114 140 26 21 71 93 71 113 0 13 9 36 21 51 15
20 17 27 7 31 -7 2 -85 15 -173 27 -93 13 -159 27 -157 33 2 6 9 8 15 6 21 -6
270 -40 313 -42 30 -2 47 3 64 19 13 12 36 22 50 22 24 0 27 5 43 73 31 128
100 367 108 367 4 0 -2 -28 -13 -62 -26 -84 -88 -337 -88 -360 0 -11 11 -23
28 -29 15 -6 37 -19 48 -30 51 -48 90 -3 222 260 54 108 123 201 150 201 6 0
-8 -20 -33 -44 -30 -30 -67 -89 -114 -183 -39 -76 -85 -162 -102 -192 l-32
-54 24 6 c13 3 84 13 157 23 126 17 135 20 154 46 11 16 33 35 49 43 16 9 31
25 33 38 3 12 14 78 26 147 25 145 43 200 34 100 -3 -36 -12 -101 -20 -145
-19 -108 -18 -115 9 -115 24 0 64 -23 84 -48 11 -14 21 -12 85 13 40 15 91 36
113 46 22 10 69 31 105 47 l66 29 -4 41 c-4 39 -8 43 -75 84 -81 48 -223 143
-250 166 -16 14 -20 13 -42 -8 -35 -33 -104 -34 -139 -1 l-25 24 -51 -22 c-65
-28 -205 -40 -250 -21 -42 17 -34 21 27 11 64 -10 155 2 216 28 41 18 47 24
47 49 0 28 -3 30 -47 36 -27 3 -91 8 -143 12 l-95 6 -20 -38z m-932 -1049 c-3
-9 -8 -14 -10 -11 -3 3 -2 9 2 15 9 16 15 13 8 -4z m-79 -220 c-4 -8 -8 -15
-10 -15 -2 0 -4 7 -4 15 0 8 4 15 10 15 5 0 7 -7 4 -15z"/>
<path d="M2338 7977 c-111 -140 -145 -197 -118 -197 13 0 12 -1 136 118 84 80
93 92 71 92 -14 0 -29 5 -32 10 -11 18 -30 10 -57 -23z"/>
<path d="M3791 7976 c-12 -14 24 -42 189 -151 25 -17 47 -32 50 -35 3 -3 27
-17 53 -30 43 -22 49 -23 57 -9 5 9 23 22 39 29 30 12 41 34 41 82 0 32 13 27
-210 73 -96 20 -182 40 -192 45 -11 6 -20 5 -27 -4z"/>
<path d="M4239 7856 c-1 -20 -2 -41 -3 -48 -1 -7 14 -13 38 -14 32 -1 45 -8
68 -34 l27 -33 73 28 c95 37 148 63 148 74 0 5 -26 12 -57 16 -104 11 -260 34
-276 41 -14 5 -17 -1 -18 -30z"/>
<path d="M2380 7484 c-13 -32 -13 -54 -1 -54 13 0 17 8 26 48 8 39 -11 44 -25
6z"/>
<path d="M4269 5217 c-14 -12 -35 -28 -45 -35 -10 -7 0 -3 23 8 23 11 45 25
48 31 13 19 0 18 -26 -4z"/>
<path d="M7875 6400 c-3 -5 -1 -10 4 -10 6 0 11 5 11 10 0 6 -2 10 -4 10 -3 0
-8 -4 -11 -10z"/>
<path d="M5456 5385 c-4 -10 3 -19 19 -25 21 -8 296 -60 317 -60 10 0 11 50 1
51 -5 0 -19 3 -33 5 -267 49 -295 51 -304 29z"/>
<path d="M5450 5290 c0 -21 4 -41 8 -44 12 -7 92 15 92 25 0 5 9 9 19 9 13 0
21 -8 23 -22 4 -26 31 -36 108 -37 45 -1 59 3 73 20 10 11 17 22 15 24 -3 3
-214 44 -310 60 -27 4 -28 3 -28 -35z"/>
<path d="M7880 5715 c-15 -8 -19 -14 -10 -14 18 -1 46 16 40 23 -3 2 -16 -2
-30 -9z"/>
<path d="M7946 5685 c4 -8 8 -15 10 -15 2 0 4 7 4 15 0 8 -4 15 -10 15 -5 0
-7 -7 -4 -15z"/>
<path d="M7934 5587 c-5 -12 -16 -21 -23 -19 -7 1 -10 -2 -7 -7 4 -5 -2 -12
-11 -14 -15 -4 -14 -5 3 -6 27 -1 75 51 56 63 -4 2 -12 -5 -18 -17z"/>
<path d="M6299 5303 c-12 -16 -12 -17 1 -7 8 7 24 14 35 17 19 4 19 5 -1 6
-12 0 -28 -7 -35 -16z"/>
<path d="M6370 5300 c0 -5 5 -10 11 -10 5 0 7 5 4 10 -3 6 -8 10 -11 10 -2 0
-4 -4 -4 -10z"/>
<path d="M7448 4984 c-32 -17 -36 -24 -10 -19 9 2 20 4 23 4 4 1 9 8 13 16 6
18 8 18 -26 -1z"/>
<path d="M7496 4963 c4 -16 10 -32 15 -37 4 -5 1 -20 -8 -33 -11 -17 -18 -20
-23 -12 -4 6 -13 8 -19 5 -6 -4 -9 -12 -6 -17 4 -5 1 -9 -4 -9 -6 0 -11 5 -11
12 0 9 -3 9 -12 0 -10 -10 -10 -15 2 -22 24 -15 66 -11 82 8 22 25 33 46 20
38 -7 -4 -9 6 -7 31 1 21 -3 43 -11 50 -20 20 -25 16 -18 -14z"/>
<path d="M4590 4220 c0 -5 4 -10 9 -10 6 0 13 5 16 10 3 6 -1 10 -9 10 -9 0
-16 -4 -16 -10z"/>
<path d="M4660 4220 c0 -5 5 -10 11 -10 5 0 7 5 4 10 -3 6 -8 10 -11 10 -2 0
-4 -4 -4 -10z"/>
<path d="M4671 4144 c0 -11 3 -14 6 -6 3 7 2 16 -1 19 -3 4 -6 -2 -5 -13z"/>
<path d="M5730 4649 c0 -5 5 -7 10 -4 6 3 10 8 10 11 0 2 -4 4 -10 4 -5 0 -10
-5 -10 -11z"/>
<path d="M6825 4104 c-16 -25 -16 -25 4 -14 12 6 21 15 21 20 0 5 8 11 18 13
13 4 13 5 -4 6 -13 1 -28 -9 -39 -25z"/>
<path d="M6898 4110 c-17 -19 -8 -37 11 -25 5 3 12 1 16 -5 3 -5 -3 -10 -14
-10 -15 0 -19 -4 -14 -17 4 -11 3 -14 -5 -9 -7 4 -12 3 -12 -3 0 -5 6 -12 13
-14 7 -3 7 -6 1 -6 -6 -1 -19 8 -29 19 -20 22 -44 29 -28 8 16 -21 23 -48 12
-48 -5 0 -14 10 -19 23 -8 21 -9 21 -9 2 -1 -28 18 -45 49 -45 43 0 62 24 74
94 7 34 5 38 -9 32 -13 -4 -16 -2 -11 9 8 21 -6 19 -26 -5z"/>
<path d="M6720 3723 c-44 -30 -53 -42 -30 -40 11 1 22 7 24 14 3 7 12 13 21
13 8 0 15 7 15 15 0 19 0 19 -30 -2z"/>
<path d="M2930 3839 c0 -5 4 -8 9 -5 5 3 12 -5 15 -19 4 -14 13 -25 21 -25 9
0 15 -10 15 -25 0 -14 4 -25 8 -25 7 0 8 13 3 51 -2 10 -53 59 -62 59 -5 0 -9
-5 -9 -11z"/>
<path d="M5265 3818 c-36 -13 -91 -63 -98 -90 -5 -19 -5 -19 14 -2 10 9 19 22
19 29 0 6 31 22 69 34 78 26 156 22 164 -8 4 -14 5 -14 6 1 3 42 -98 62 -174
36z"/>
<path d="M5368 3783 c7 -3 16 -2 19 1 4 3 -2 6 -13 5 -11 0 -14 -3 -6 -6z"/>
<path d="M5298 3763 c7 -3 16 -2 19 1 4 3 -2 6 -13 5 -11 0 -14 -3 -6 -6z"/>
<path d="M5460 3740 c0 -5 5 -10 11 -10 5 0 7 5 4 10 -3 6 -8 10 -11 10 -2 0
-4 -4 -4 -10z"/>
<path d="M5298 3723 c12 -2 32 -2 45 0 12 2 2 4 -23 4 -25 0 -35 -2 -22 -4z"/>
<path d="M5404 3689 c-3 -6 -17 -8 -30 -5 -17 5 -24 2 -24 -8 0 -8 -3 -21 -6
-30 -4 -11 -1 -16 10 -16 9 0 16 8 16 20 0 11 5 20 10 20 6 0 10 -6 10 -14 0
-23 19 -29 36 -12 11 12 12 20 4 36 -12 23 -16 24 -26 9z"/>
<path d="M5257 3655 c-7 -45 3 -52 30 -19 14 17 21 21 17 10 -5 -13 -3 -17 6
-14 7 2 14 14 15 25 1 17 -5 22 -31 25 -29 3 -33 1 -37 -27z"/>
<path d="M5300 3600 c0 -6 11 -8 28 -4 39 10 40 14 4 14 -18 0 -32 -5 -32 -10z"/>
<path d="M3641 3760 c-21 -14 -19 -41 5 -70 28 -32 54 -40 54 -15 0 8 5 15 11
15 6 0 8 9 4 21 -5 15 -4 19 4 15 16 -10 14 19 -3 33 -13 11 -59 12 -75 1z"/>
<path d="M3727 3683 c-4 -3 -7 -11 -7 -17 0 -6 5 -5 12 2 6 6 9 14 7 17 -3 3
-9 2 -12 -2z"/>
<path d="M6310 3776 c0 -2 7 -7 16 -10 8 -3 12 -2 9 4 -6 10 -25 14 -25 6z"/>
<path d="M6357 3739 c4 -13 8 -18 11 -10 2 7 -1 18 -6 23 -8 8 -9 4 -5 -13z"/>
<path d="M6183 3713 c-4 -10 -11 -21 -16 -24 -5 -3 4 -6 21 -5 22 1 28 5 24
19 -7 26 -21 31 -29 10z"/>
<path d="M6320 3723 c0 -4 7 -17 15 -27 13 -17 13 -21 -5 -33 -22 -15 -27 -33
-9 -33 5 0 8 4 4 10 -3 5 5 15 19 22 l24 13 -24 28 c-13 15 -24 24 -24 20z"/>
<path d="M6140 3709 c0 -5 5 -7 10 -4 6 3 10 8 10 11 0 2 -4 4 -10 4 -5 0 -10
-5 -10 -11z"/>
<path d="M6115 3680 c-3 -5 -1 -10 4 -10 6 0 11 5 11 10 0 6 -2 10 -4 10 -3 0
-8 -4 -11 -10z"/>
<path d="M6140 3666 c0 -8 4 -17 9 -20 5 -4 7 3 4 14 -6 23 -13 26 -13 6z"/>
<path d="M6266 3646 c3 -9 2 -16 -4 -16 -6 0 -12 6 -15 13 -2 6 -7 10 -10 7
-3 -3 1 -14 9 -25 13 -17 16 -18 30 -4 13 14 13 17 -1 29 -13 11 -15 10 -9 -4z"/>
<path d="M6110 3639 c0 -14 38 -44 46 -36 2 2 -7 14 -21 27 -17 16 -25 19 -25
9z"/>
<path d="M6188 3603 c6 -2 18 -2 25 0 6 3 1 5 -13 5 -14 0 -19 -2 -12 -5z"/>
<path d="M3702 3308 c7 -13 17 -26 21 -29 5 -3 8 -9 8 -13 -3 -20 1 -26 15
-26 13 0 14 3 4 15 -6 8 -8 20 -4 26 4 8 3 9 -4 5 -7 -4 -12 -1 -12 8 0 8 -9
20 -20 26 -20 11 -20 10 -8 -12z"/>
<path d="M3626 3304 c-5 -14 -4 -15 9 -4 17 14 19 20 6 20 -5 0 -12 -7 -15
-16z"/>
<path d="M4520 3449 c0 -5 5 -7 10 -4 6 3 10 8 10 11 0 2 -4 4 -10 4 -5 0 -10
-5 -10 -11z"/>
<path d="M4630 3451 c0 -6 5 -13 12 -17 6 -4 8 -3 4 4 -3 5 0 13 6 15 8 3 6 6
-4 6 -10 1 -18 -3 -18 -8z"/>
<path d="M4530 3390 c0 -5 9 -10 20 -10 11 0 20 5 20 10 0 6 -9 10 -20 10 -11
0 -20 -4 -20 -10z"/>
<path d="M4625 3390 c-3 -5 -1 -10 4 -10 6 0 11 5 11 10 0 6 -2 10 -4 10 -3 0
-8 -4 -11 -10z"/>
<path d="M4496 3375 c-3 -8 -1 -15 4 -15 6 0 10 7 10 15 0 8 -2 15 -4 15 -2 0
-6 -7 -10 -15z"/>
<path d="M5527 3316 c-42 -38 -41 -36 -25 -71 9 -21 18 -25 55 -25 25 0 51 6
59 14 24 25 15 96 -12 96 -8 0 -14 5 -14 10 0 20 -27 9 -63 -24z"/>
<path d="M4730 3060 c-24 -8 -24 -8 7 -9 17 -1 35 4 38 9 7 11 -9 11 -45 0z"/>
<path d="M6887 2045 c5 -214 10 -236 11 -45 0 85 -3 166 -7 180 -4 14 -5 -47
-4 -135z"/>
<path d="M8253 2278 c-37 -39 -53 -69 -53 -98 0 -20 4 -21 133 -18 81 2 131 7
130 13 -1 6 -5 19 -9 29 -7 19 -7 19 19 0 15 -10 27 -29 27 -41 0 -13 4 -23
10 -23 16 0 -1 63 -24 89 -49 55 -97 81 -151 81 -45 0 -55 -4 -82 -32z"/>
<path d="M8545 2160 c3 -5 -6 -21 -21 -35 l-27 -25 32 0 c18 0 31 5 31 13 0 8
4 7 10 -3 14 -21 13 3 -2 35 -6 14 -15 25 -20 25 -5 0 -6 -4 -3 -10z"/>
<path d="M8165 2131 c-3 -5 -1 -12 5 -16 5 -3 10 1 10 9 0 18 -6 21 -15 7z"/>
<path d="M8213 2132 c-35 -5 -27 -20 10 -22 160 -5 197 -4 197 5 0 10 -163 23
-207 17z"/>
<path d="M8458 2113 c7 -3 16 -2 19 1 4 3 -2 6 -13 5 -11 0 -14 -3 -6 -6z"/>
<path d="M8191 1994 c0 -11 3 -14 6 -6 3 7 2 16 -1 19 -3 4 -6 -2 -5 -13z"/>
<path d="M8110 1995 c0 -5 5 -17 10 -25 5 -8 10 -10 10 -5 0 6 -5 17 -10 25
-5 8 -10 11 -10 5z"/>
<path d="M8140 1955 c0 -6 4 -16 9 -24 8 -12 12 -12 25 2 19 19 21 34 3 18
-10 -8 -17 -7 -25 1 -7 7 -12 8 -12 3z"/>
<path d="M8188 1903 c7 -3 16 -2 19 1 4 3 -2 6 -13 5 -11 0 -14 -3 -6 -6z"/>
<path d="M8232 1891 c-10 -6 -7 -10 12 -13 21 -4 24 -3 15 8 -13 16 -11 16
-27 5z"/>
<path d="M7261 2274 c-29 -24 -65 -108 -54 -126 5 -9 267 -11 276 -2 7 7 -13
63 -34 92 -22 31 -86 62 -125 62 -20 0 -44 -10 -63 -26z"/>
<path d="M7120 1985 c0 -22 51 -85 69 -85 6 0 11 -4 11 -10 0 -5 7 -10 15 -10
9 0 12 6 9 15 -4 8 -10 15 -15 15 -14 0 -50 33 -70 65 -16 25 -19 26 -19 10z"/>
<path d="M7490 1910 c0 -5 -10 -10 -22 -12 -11 -2 -22 -11 -24 -20 -3 -25 15
-22 50 5 25 20 27 25 13 30 -10 4 -17 2 -17 -3z"/>
<path d="M7245 1863 c11 -3 24 -9 30 -14 5 -5 36 -9 70 -8 50 1 55 2 31 9 -16
5 -44 8 -62 6 -19 -1 -34 1 -34 6 0 4 -12 7 -27 7 -21 -1 -23 -2 -8 -6z"/>
<path d="M6033 2259 c-66 -20 -123 -102 -123 -178 0 -108 102 -196 206 -176
47 8 108 68 118 115 19 97 -2 183 -54 220 -34 24 -103 33 -147 19z"/>
<path d="M7743 1930 c0 -41 2 -58 4 -37 2 20 2 54 0 75 -2 20 -4 3 -4 -38z"/>
<path d="M1916 2250 c-42 -13 -66 -39 -93 -100 -53 -119 6 -244 121 -257 38
-5 53 -1 85 20 101 67 111 263 15 319 -38 21 -92 29 -128 18z"/>
<path d="M3756 2280 c-16 -5 -39 -19 -52 -31 -23 -22 -51 -86 -41 -95 3 -3 63
-6 134 -6 l128 -1 3 31 c5 46 -49 102 -103 107 -22 2 -53 0 -69 -5z"/>
</g>
</svg>
